<?xml version="1.0" encoding="UTF-8" standalone="no"?>
<svg
   xmlns:dc="http://purl.org/dc/elements/1.1/"
   xmlns:cc="http://creativecommons.org/ns#"
   xmlns:rdf="http://www.w3.org/1999/02/22-rdf-syntax-ns#"
   xmlns:svg="http://www.w3.org/2000/svg"
   xmlns="http://www.w3.org/2000/svg"
   viewBox="0 0 990 765"
   height="765"
   width="990"
   xml:space="preserve"
   version="1.1"
   id="svg2"><metadata
     id="metadata8"><rdf:RDF><cc:Work
         rdf:about=""><dc:format>image/svg+xml</dc:format><dc:type
           rdf:resource="http://purl.org/dc/dcmitype/StillImage" /></cc:Work></rdf:RDF></metadata><defs
     id="defs6"><clipPath
       id="clipPath12"
       clipPathUnits="userSpaceOnUse"><path
         id="path14"
         d="M 0,0 612,0 612,792 0,792 0,0 Z" /></clipPath></defs><g
     clip-path="url(#clipPath12)"
     transform="matrix(0,1.25,1.25,0,0,0)"
     id="g10"><g
       transform="translate(72,719.99999)"
       id="g16"><g
         transform="matrix(0,1,-1,0,-195.26775,-1006.2266)"
         id="g18"><g
           transform="translate(463.79375,-265.03906)"
           id="g20"><g
             id="g22"><g
               id="g24"><g
                 id="g26"><g
                   id="g28"><g
                     id="g30"><g
                       transform="translate(2.14697,-2.14697)"
                       id="g32"><path
                         id="path34"
                         style="fill:#808080;fill-opacity:0.5;fill-rule:nonzero;stroke:none"
                         d="m 37.19397,7.80379 -74.38794,0 c -3.30142,0 -5.97766,-2.67624 -5.97766,-5.97766 l 0,-3.65226 c 0,-3.30142 2.67624,-5.97766 5.97766,-5.97766 l 74.38794,0 c 3.30142,0 5.97766,2.67624 5.97766,5.97766 l 0,3.65226 c 0,3.30142 -2.67624,5.97766 -5.97766,5.97766 z" /></g></g></g><g
                   id="g36"><path
                     id="path38"
                     style="fill:#66ff66;fill-opacity:1;fill-rule:nonzero;stroke:#000000;stroke-width:0.3985;stroke-linecap:butt;stroke-linejoin:miter;stroke-miterlimit:10;stroke-dasharray:none;stroke-opacity:1"
                     d="m 37.19397,7.80379 -74.38794,0 c -3.30142,0 -5.97766,-2.67624 -5.97766,-5.97766 l 0,-3.65226 c 0,-3.30142 2.67624,-5.97766 5.97766,-5.97766 l 74.38794,0 c 3.30142,0 5.97766,2.67624 5.97766,5.97766 l 0,3.65226 c 0,3.30142 -2.67624,5.97766 -5.97766,5.97766 z" /></g><g
                   id="g40"><g
                     transform="scale(-1,-1)"
                     id="g42"><g
                       id="g44" /><g
                       transform="matrix(-1,0,0,-1,463.79375,-265.03906)"
                       id="g46"><g
                         id="g48" /><g
                         transform="translate(-39.85107,-2.43092)"
                         id="g50"><text
                           id="text52"
                           style="font-variant:normal;font-size:9.96263981px;font-family:LMSans10-Regular-Identity;-inkscape-font-specification:LMSans10-Regular-Identity-H;writing-mode:lr-tb;fill:#000000;fill-opacity:1;fill-rule:nonzero;stroke:none"
                           transform="matrix(1,0,0,-1,481.73647,-265.03906)"><tspan
                             id="tspan54"
                             y="0"
                             x="0 6.4358654 10.859278 15.840597 19.24782 23.671232 27.486923 31.302614 33.683685 38.665005">Regression</tspan></text>
</g><g
                         transform="translate(463.79375,-265.03906)"
                         id="g56" /></g></g></g></g><g
                 id="g58"><g
                   id="g60"><g
                     id="g62"><g
                       transform="translate(2.14697,-2.14697)"
                       id="g64"><path
                         id="path66"
                         style="fill:#808080;fill-opacity:0.5;fill-rule:nonzero;stroke:none"
                         d="m 256.37488,6.89221 -74.38796,0 c -3.30142,0 -5.97766,-2.67625 -5.97766,-5.97766 l 0,-1.8291 c 0,-3.30141 2.67624,-5.97766 5.97766,-5.97766 l 74.38796,0 c 3.30142,0 5.97766,2.67625 5.97766,5.97766 l 0,1.8291 c 0,3.30141 -2.67624,5.97766 -5.97766,5.97766 z" /></g></g></g><g
                   id="g68"><path
                     id="path70"
                     style="fill:#66ff66;fill-opacity:1;fill-rule:nonzero;stroke:#000000;stroke-width:0.3985;stroke-linecap:butt;stroke-linejoin:miter;stroke-miterlimit:10;stroke-dasharray:none;stroke-opacity:1"
                     d="m 256.37488,6.89221 -74.38796,0 c -3.30142,0 -5.97766,-2.67625 -5.97766,-5.97766 l 0,-1.8291 c 0,-3.30141 2.67624,-5.97766 5.97766,-5.97766 l 74.38796,0 c 3.30142,0 5.97766,2.67625 5.97766,5.97766 l 0,1.8291 c 0,3.30141 -2.67624,5.97766 -5.97766,5.97766 z" /></g><g
                   id="g72"><g
                     transform="scale(-1,-1)"
                     id="g74"><g
                       id="g76" /><g
                       transform="matrix(-1,0,0,-1,463.79375,-265.03906)"
                       id="g78"><g
                         id="g80" /><g
                         transform="translate(179.32983,-3.46207)"
                         id="g82"><text
                           id="text84"
                           style="font-variant:normal;font-size:9.96263981px;font-family:LMSans10-Regular-Identity;-inkscape-font-specification:LMSans10-Regular-Identity-H;writing-mode:lr-tb;fill:#000000;fill-opacity:1;fill-rule:nonzero;stroke:none"
                           transform="matrix(1,0,0,-1,476.53597,-265.03906)"><tspan
                             id="tspan86"
                             y="0"
                             x="0 6.366127 8.7471981 13.539227 17.354919 21.17061 23.551682 28.891657 33.315067 38.107098 41.703609 44.084682 49.066002">Classifcation</tspan></text>
</g><g
                         transform="translate(463.79375,-265.03906)"
                         id="g88" /></g></g></g></g><g
                 id="g90"><g
                   id="g92"><g
                     id="g94"><g
                       id="g96"><g
                         transform="translate(2.14697,-2.14697)"
                         id="g98"><path
                           id="path100"
                           style="fill:#808080;fill-opacity:0.5;fill-rule:nonzero;stroke:none"
                           d="m -18.26471,-36.64874 166.04543,0 0,16.60387 -166.04543,0 0,-16.60387 z" /></g></g></g><g
                     id="g102"><path
                       id="path104"
                       style="fill:#ffd9d9;fill-opacity:1;fill-rule:nonzero;stroke:#000000;stroke-width:0.3985;stroke-linecap:butt;stroke-linejoin:miter;stroke-miterlimit:10;stroke-dasharray:none;stroke-opacity:1"
                       d="m -18.26471,-36.64874 166.04543,0 0,16.60387 -166.04543,0 0,-16.60387 z" /></g><g
                     id="g106"><g
                       transform="scale(-1,-1)"
                       id="g108"><g
                         id="g110" /><g
                         transform="matrix(-1,0,0,-1,463.79375,-265.03906)"
                         id="g112"><g
                           id="g114" /><g
                           transform="translate(-14.94415,-30.83751)"
                           id="g116"><text
                             id="text118"
                             style="font-variant:normal;font-size:9.96263981px;font-family:LMSans10-Regular-Identity;-inkscape-font-specification:LMSans10-Regular-Identity-H;writing-mode:lr-tb;fill:#000000;fill-opacity:1;fill-rule:nonzero;stroke:none"
                             transform="matrix(1,0,0,-1,463.79375,-265.03906)"><tspan
                               id="tspan120"
                               y="0"
                               x="0 8.71731 13.140722 17.932753 26.400995 31.940224 37.090908 42.241592 46.764633 50.171856 57.902863 63.850559 67.257782 70.665009 75.377335 82.092155 85.967621 94.684929 100.22416 106.17185">MeanSquareError(MSE)</tspan></text>
</g><g
                           transform="translate(463.79375,-265.03906)"
                           id="g122" /></g></g></g></g><g
                   id="g124"><g
                     id="g126"><g
                       id="g128"><g
                         transform="translate(2.14697,-2.14697)"
                         id="g130"><path
                           id="path132"
                           style="fill:#808080;fill-opacity:0.5;fill-rule:nonzero;stroke:none"
                           d="m -18.26471,-64.99554 166.04543,0 0,16.60387 -166.04543,0 0,-16.60387 z" /></g></g></g><g
                     id="g134"><path
                       id="path136"
                       style="fill:#ffd9d9;fill-opacity:1;fill-rule:nonzero;stroke:#000000;stroke-width:0.3985;stroke-linecap:butt;stroke-linejoin:miter;stroke-miterlimit:10;stroke-dasharray:none;stroke-opacity:1"
                       d="m -18.26471,-64.99554 166.04543,0 0,16.60387 -166.04543,0 0,-16.60387 z" /></g><g
                     id="g138"><g
                       transform="scale(-1,-1)"
                       id="g140"><g
                         id="g142" /><g
                         transform="matrix(-1,0,0,-1,463.79375,-265.03906)"
                         id="g144"><g
                           id="g146" /><g
                           transform="translate(-14.94415,-59.18433)"
                           id="g148"><text
                             id="text150"
                             style="font-variant:normal;font-size:9.96263981px;font-family:LMSans10-Regular-Identity;-inkscape-font-specification:LMSans10-Regular-Identity-H;writing-mode:lr-tb;fill:#000000;fill-opacity:1;fill-rule:nonzero;stroke:none"
                             transform="matrix(1,0,0,-1,463.79375,-265.03906)"><tspan
                               id="tspan152"
                               y="0"
                               x="0 8.71731 13.140722 17.932753 26.400995 33.046078 38.196762 42.012451 46.993774 49.374844 54.525528 58.122044 65.863014 71.810707 75.217934 78.625153 83.337486 90.052299 93.927773 102.64508 109.29016 115.23785">MeanAbsoluteError(MAE)</tspan></text>
</g><g
                           transform="translate(463.79375,-265.03906)"
                           id="g154" /></g></g></g></g><g
                   id="g156"><g
                     id="g158"><g
                       id="g160"><g
                         transform="translate(2.14697,-2.14697)"
                         id="g162"><path
                           id="path164"
                           style="fill:#808080;fill-opacity:0.5;fill-rule:nonzero;stroke:none"
                           d="m -18.26471,-92.84422 166.04543,0 0,15.60759 -166.04543,0 0,-15.60759 z" /></g></g></g><g
                     id="g166"><path
                       id="path168"
                       style="fill:#ffd9d9;fill-opacity:1;fill-rule:nonzero;stroke:#000000;stroke-width:0.3985;stroke-linecap:butt;stroke-linejoin:miter;stroke-miterlimit:10;stroke-dasharray:none;stroke-opacity:1"
                       d="m -18.26471,-92.84422 166.04543,0 0,15.60759 -166.04543,0 0,-15.60759 z" /></g><g
                     id="g170"><g
                       transform="scale(-1,-1)"
                       id="g172"><g
                         id="g174" /><g
                         transform="matrix(-1,0,0,-1,463.79375,-265.03906)"
                         id="g176"><g
                           id="g178" /><g
                           transform="translate(-14.94415,-87.47136)"
                           id="g180"><text
                             id="text182"
                             style="font-variant:normal;font-size:9.96263981px;font-family:LMSans10-Regular-Identity;-inkscape-font-specification:LMSans10-Regular-Identity-H;writing-mode:lr-tb;fill:#000000;fill-opacity:1;fill-rule:nonzero;stroke:none"
                             transform="matrix(1,0,0,-1,463.79375,-265.03906)"><tspan
                               id="tspan184"
                               y="0"
                               x="0 5.3997507 10.381071 18.679951 23.103363 28.084682 31.900373 40.368618 45.768368 50.749687 54.56538">LogcoshLoss</tspan></text>
</g><g
                           transform="translate(463.79375,-265.03906)"
                           id="g186" /></g></g></g></g><g
                   id="g188"><g
                     id="g190"><g
                       id="g192"><g
                         transform="translate(2.14697,-2.14697)"
                         id="g194"><path
                           id="path196"
                           style="fill:#808080;fill-opacity:0.5;fill-rule:nonzero;stroke:none"
                           d="m -18.26471,-120.89713 166.04543,0 0,15.01979 -166.04543,0 0,-15.01979 z" /></g></g></g><g
                     id="g198"><path
                       id="path200"
                       style="fill:#ffd9d9;fill-opacity:1;fill-rule:nonzero;stroke:#000000;stroke-width:0.3985;stroke-linecap:butt;stroke-linejoin:miter;stroke-miterlimit:10;stroke-dasharray:none;stroke-opacity:1"
                       d="m -18.26471,-120.89713 166.04543,0 0,15.01979 -166.04543,0 0,-15.01979 z" /></g><g
                     id="g202"><g
                       transform="scale(-1,-1)"
                       id="g204"><g
                         id="g206" /><g
                         transform="matrix(-1,0,0,-1,463.79375,-265.03906)"
                         id="g208"><g
                           id="g210" /><g
                           transform="translate(-14.94415,-116.33125)"
                           id="g212"><text
                             id="text214"
                             style="font-variant:normal;font-size:9.96263981px;font-family:LMSans10-Regular-Identity;-inkscape-font-specification:LMSans10-Regular-Identity-H;writing-mode:lr-tb;fill:#000000;fill-opacity:1;fill-rule:nonzero;stroke:none"
                             transform="matrix(1,0,0,-1,463.79375,-265.03906)"><tspan
                               id="tspan216"
                               y="0"
                               x="0 7.3325028 12.483188 17.275217 22.425903 26.022415 28.403486 30.784557 38.525528 43.925282 48.906601 52.72229">QuantileLoss</tspan></text>
</g><g
                           transform="translate(463.79375,-265.03906)"
                           id="g218" /></g></g></g></g><g
                   id="g220"><g
                     id="g222"><g
                       id="g224"><g
                         transform="translate(2.14697,-2.14697)"
                         id="g226"><path
                           id="path228"
                           style="fill:#808080;fill-opacity:0.5;fill-rule:nonzero;stroke:none"
                           d="m 200.91618,-36.64874 166.04543,0 0,16.60387 -166.04543,0 0,-16.60387 z" /></g></g></g><g
                     id="g230"><path
                       id="path232"
                       style="fill:#ffd9d9;fill-opacity:1;fill-rule:nonzero;stroke:#000000;stroke-width:0.3985;stroke-linecap:butt;stroke-linejoin:miter;stroke-miterlimit:10;stroke-dasharray:none;stroke-opacity:1"
                       d="m 200.91618,-36.64874 166.04543,0 0,16.60387 -166.04543,0 0,-16.60387 z" /></g><g
                     id="g234"><g
                       transform="scale(-1,-1)"
                       id="g236"><g
                         id="g238" /><g
                         transform="matrix(-1,0,0,-1,463.79375,-265.03906)"
                         id="g240"><g
                           id="g242" /><g
                           transform="translate(204.23676,-30.83751)"
                           id="g244"><text
                             id="text246"
                             style="font-variant:normal;font-size:9.96263981px;font-family:LMSans10-Regular-Identity;-inkscape-font-specification:LMSans10-Regular-Identity-H;writing-mode:lr-tb;fill:#000000;fill-opacity:1;fill-rule:nonzero;stroke:none"
                             transform="matrix(1,0,0,-1,463.79375,-265.03906)"><tspan
                               id="tspan248"
                               y="0"
                               x="0 6.366127 9.7733498 14.75467 18.57036 25.703611 31.651308 36.801991 40.398506 43.805729 48.787048 53.668743 61.569115 65.44458 70.84433 75.825653 84.124535 89.524284 94.5056 98.321297 102.13699">CrossEntropy(LogLoss)</tspan></text>
</g><g
                           transform="translate(463.79375,-265.03906)"
                           id="g250" /></g></g></g></g><g
                   id="g252"><g
                     id="g254"><g
                       id="g256"><g
                         transform="translate(2.14697,-2.14697)"
                         id="g258"><path
                           id="path260"
                           style="fill:#808080;fill-opacity:0.5;fill-rule:nonzero;stroke:none"
                           d="m 200.91618,-64.99554 166.04543,0 0,16.60387 -166.04543,0 0,-16.60387 z" /></g></g></g><g
                     id="g262"><path
                       id="path264"
                       style="fill:#ffd9d9;fill-opacity:1;fill-rule:nonzero;stroke:#000000;stroke-width:0.3985;stroke-linecap:butt;stroke-linejoin:miter;stroke-miterlimit:10;stroke-dasharray:none;stroke-opacity:1"
                       d="m 200.91618,-64.99554 166.04543,0 0,16.60387 -166.04543,0 0,-16.60387 z" /></g><g
                     id="g266"><g
                       transform="scale(-1,-1)"
                       id="g268"><g
                         id="g270" /><g
                         transform="matrix(-1,0,0,-1,463.79375,-265.03906)"
                         id="g272"><g
                           id="g274" /><g
                           transform="translate(204.23676,-59.18433)"
                           id="g276"><text
                             id="text278"
                             style="font-variant:normal;font-size:9.96263981px;font-family:LMSans10-Regular-Identity;-inkscape-font-specification:LMSans10-Regular-Identity-H;writing-mode:lr-tb;fill:#000000;fill-opacity:1;fill-rule:nonzero;stroke:none"
                             transform="matrix(1,0,0,-1,463.79375,-265.03906)"><tspan
                               id="tspan280"
                               y="0"
                               x="0 6.4358654 10.859278 13.240349 18.032379 21.628891 24.009962 28.602739 36.343712 42.291409 47.442093 51.038605 54.445827 59.427147 64.308838 72.209213 76.084679 82.998756 91.716064 98.909088 101.29016 105.88293 110.30635 113.71357 118.69489 123.1183 128.269 132.6924 137.11581">RelativeEntropy(KLDivergence)</tspan></text>
</g><g
                           transform="translate(463.79375,-265.03906)"
                           id="g282" /></g></g></g></g><g
                   id="g284"><g
                     id="g286"><g
                       id="g288"><g
                         transform="translate(2.14697,-2.14697)"
                         id="g290"><path
                           id="path292"
                           style="fill:#808080;fill-opacity:0.5;fill-rule:nonzero;stroke:none"
                           d="m 200.91618,-92.78444 166.04543,0 0,15.48804 -166.04543,0 0,-15.48804 z" /></g></g></g><g
                     id="g294"><path
                       id="path296"
                       style="fill:#ffd9d9;fill-opacity:1;fill-rule:nonzero;stroke:#000000;stroke-width:0.3985;stroke-linecap:butt;stroke-linejoin:miter;stroke-miterlimit:10;stroke-dasharray:none;stroke-opacity:1"
                       d="m 200.91618,-92.78444 166.04543,0 0,15.48804 -166.04543,0 0,-15.48804 z" /></g><g
                     id="g298"><g
                       transform="scale(-1,-1)"
                       id="g300"><g
                         id="g302" /><g
                         transform="matrix(-1,0,0,-1,463.79375,-265.03906)"
                         id="g304"><g
                           id="g306" /><g
                           transform="translate(204.23676,-87.53113)"
                           id="g308"><text
                             id="text310"
                             style="font-variant:normal;font-size:9.96263981px;font-family:LMSans10-Regular-Identity;-inkscape-font-specification:LMSans10-Regular-Identity-H;writing-mode:lr-tb;fill:#000000;fill-opacity:1;fill-rule:nonzero;stroke:none"
                             transform="matrix(1,0,0,-1,463.79375,-265.03906)"><tspan
                               id="tspan312"
                               y="0"
                               x="0 5.9476962 10.540473 15.970112 20.951431 26.102118 30.52553 35.676212 39.272728 41.653797 46.445827 52.144459 57.544209 62.525528 66.341217">ExponentialLoss</tspan></text>
</g><g
                           transform="translate(463.79375,-265.03906)"
                           id="g314" /></g></g></g></g><g
                   id="g316"><g
                     id="g318"><g
                       id="g320"><g
                         transform="translate(2.14697,-2.14697)"
                         id="g322"><path
                           id="path324"
                           style="fill:#808080;fill-opacity:0.5;fill-rule:nonzero;stroke:none"
                           d="m 200.91618,-121.19102 166.04543,0 0,15.60759 -166.04543,0 0,-15.60759 z" /></g></g></g><g
                     id="g326"><path
                       id="path328"
                       style="fill:#ffd9d9;fill-opacity:1;fill-rule:nonzero;stroke:#000000;stroke-width:0.3985;stroke-linecap:butt;stroke-linejoin:miter;stroke-miterlimit:10;stroke-dasharray:none;stroke-opacity:1"
                       d="m 200.91618,-121.19102 166.04543,0 0,15.60759 -166.04543,0 0,-15.60759 z" /></g><g
                     id="g330"><g
                       transform="scale(-1,-1)"
                       id="g332"><g
                         id="g334" /><g
                         transform="matrix(-1,0,0,-1,463.79375,-265.03906)"
                         id="g336"><g
                           id="g338" /><g
                           transform="translate(204.23676,-115.81816)"
                           id="g340"><text
                             id="text342"
                             style="font-variant:normal;font-size:9.96263981px;font-family:LMSans10-Regular-Identity;-inkscape-font-specification:LMSans10-Regular-Identity-H;writing-mode:lr-tb;fill:#000000;fill-opacity:1;fill-rule:nonzero;stroke:none"
                             transform="matrix(1,0,0,-1,463.79375,-265.03906)"><tspan
                               id="tspan344"
                               y="0"
                               x="0 7.0535493 9.4346199 14.585305 19.566626 27.307596 32.707348 37.688667 41.504356">HingeLoss</tspan></text>
</g><g
                           transform="translate(463.79375,-265.03906)"
                           id="g346" /></g></g></g></g></g><path
                 id="path348"
                 style="fill:none;stroke:#000000;stroke-width:0.3985;stroke-linecap:butt;stroke-linejoin:miter;stroke-miterlimit:10;stroke-dasharray:none;stroke-opacity:1"
                 d="m -29.87112,-8.00304 0,-20.34376 7.82062,0" /><g
                 transform="translate(-22.0505,-28.3468)"
                 id="g350"><g
                   id="g352"><path
                     id="path354"
                     style="fill:#000000;fill-opacity:1;fill-rule:nonzero;stroke:none"
                     d="M 3.58653,0 C 2.52383,0.19925 0.797,0.797 -0.3985,1.49438 l 0,-2.98876 C 0.797,-0.797 2.52383,-0.19925 3.58653,0" /></g></g><path
                 id="path356"
                 style="fill:none;stroke:#000000;stroke-width:0.3985;stroke-linecap:butt;stroke-linejoin:miter;stroke-miterlimit:10;stroke-dasharray:none;stroke-opacity:1"
                 d="m -29.87112,-8.00304 0,-48.69058 7.82062,0" /><g
                 transform="translate(-22.0505,-56.69362)"
                 id="g358"><g
                   id="g360"><path
                     id="path362"
                     style="fill:#000000;fill-opacity:1;fill-rule:nonzero;stroke:none"
                     d="M 3.58653,0 C 2.52383,0.19925 0.797,0.797 -0.3985,1.49438 l 0,-2.98876 C 0.797,-0.797 2.52383,-0.19925 3.58653,0" /></g></g><path
                 id="path364"
                 style="fill:none;stroke:#000000;stroke-width:0.3985;stroke-linecap:butt;stroke-linejoin:miter;stroke-miterlimit:10;stroke-dasharray:none;stroke-opacity:1"
                 d="m -29.87112,-8.00304 0,-77.03738 7.82062,0" /><g
                 transform="translate(-22.0505,-85.04042)"
                 id="g366"><g
                   id="g368"><path
                     id="path370"
                     style="fill:#000000;fill-opacity:1;fill-rule:nonzero;stroke:none"
                     d="M 3.58653,0 C 2.52383,0.19925 0.797,0.797 -0.3985,1.49438 l 0,-2.98876 C 0.797,-0.797 2.52383,-0.19925 3.58653,0" /></g></g><path
                 id="path372"
                 style="fill:none;stroke:#000000;stroke-width:0.3985;stroke-linecap:butt;stroke-linejoin:miter;stroke-miterlimit:10;stroke-dasharray:none;stroke-opacity:1"
                 d="m -29.87112,-8.00304 0,-105.3842 7.82062,0" /><g
                 transform="translate(-22.0505,-113.38724)"
                 id="g374"><g
                   id="g376"><path
                     id="path378"
                     style="fill:#000000;fill-opacity:1;fill-rule:nonzero;stroke:none"
                     d="M 3.58653,0 C 2.52383,0.19925 0.797,0.797 -0.3985,1.49438 l 0,-2.98876 C 0.797,-0.797 2.52383,-0.19925 3.58653,0" /></g></g><path
                 id="path380"
                 style="fill:none;stroke:#000000;stroke-width:0.3985;stroke-linecap:butt;stroke-linejoin:miter;stroke-miterlimit:10;stroke-dasharray:none;stroke-opacity:1"
                 d="m 192.71225,-7.09146 0,-21.25534 4.41814,0" /><g
                 transform="translate(197.13039,-28.3468)"
                 id="g382"><g
                   id="g384"><path
                     id="path386"
                     style="fill:#000000;fill-opacity:1;fill-rule:nonzero;stroke:none"
                     d="M 3.58653,0 C 2.52383,0.19925 0.797,0.797 -0.3985,1.49438 l 0,-2.98876 C 0.797,-0.797 2.52383,-0.19925 3.58653,0" /></g></g><path
                 id="path388"
                 style="fill:none;stroke:#000000;stroke-width:0.3985;stroke-linecap:butt;stroke-linejoin:miter;stroke-miterlimit:10;stroke-dasharray:none;stroke-opacity:1"
                 d="m 192.71225,-7.09146 0,-49.60216 4.41814,0" /><g
                 transform="translate(197.13039,-56.69362)"
                 id="g390"><g
                   id="g392"><path
                     id="path394"
                     style="fill:#000000;fill-opacity:1;fill-rule:nonzero;stroke:none"
                     d="M 3.58653,0 C 2.52383,0.19925 0.797,0.797 -0.3985,1.49438 l 0,-2.98876 C 0.797,-0.797 2.52383,-0.19925 3.58653,0" /></g></g><path
                 id="path396"
                 style="fill:none;stroke:#000000;stroke-width:0.3985;stroke-linecap:butt;stroke-linejoin:miter;stroke-miterlimit:10;stroke-dasharray:none;stroke-opacity:1"
                 d="m 192.71225,-7.09146 0,-77.94896 4.41814,0" /><g
                 transform="translate(197.13039,-85.04042)"
                 id="g398"><g
                   id="g400"><path
                     id="path402"
                     style="fill:#000000;fill-opacity:1;fill-rule:nonzero;stroke:none"
                     d="M 3.58653,0 C 2.52383,0.19925 0.797,0.797 -0.3985,1.49438 l 0,-2.98876 C 0.797,-0.797 2.52383,-0.19925 3.58653,0" /></g></g><path
                 id="path404"
                 style="fill:none;stroke:#000000;stroke-width:0.3985;stroke-linecap:butt;stroke-linejoin:miter;stroke-miterlimit:10;stroke-dasharray:none;stroke-opacity:1"
                 d="m 192.71225,-7.09146 0,-106.29578 4.41814,0" /><g
                 transform="translate(197.13039,-113.38724)"
                 id="g406"><g
                   id="g408"><path
                     id="path410"
                     style="fill:#000000;fill-opacity:1;fill-rule:nonzero;stroke:none"
                     d="M 3.58653,0 C 2.52383,0.19925 0.797,0.797 -0.3985,1.49438 l 0,-2.98876 C 0.797,-0.797 2.52383,-0.19925 3.58653,0" /></g></g></g></g></g></g></g></g></svg>