<?xml version="1.0" encoding="UTF-8" standalone="no"?>
<svg
   xmlns:dc="http://purl.org/dc/elements/1.1/"
   xmlns:cc="http://creativecommons.org/ns#"
   xmlns:rdf="http://www.w3.org/1999/02/22-rdf-syntax-ns#"
   xmlns:svg="http://www.w3.org/2000/svg"
   xmlns="http://www.w3.org/2000/svg"
   viewBox="0 0 900 738.90002"
   height="738.90002"
   width="900"
   xml:space="preserve"
   version="1.1"
   id="svg2"><metadata
     id="metadata8"><rdf:RDF><cc:Work
         rdf:about=""><dc:format>image/svg+xml</dc:format><dc:type
           rdf:resource="http://purl.org/dc/dcmitype/StillImage" /></cc:Work></rdf:RDF></metadata><defs
     id="defs6"><clipPath
       id="clipPath30"
       clipPathUnits="userSpaceOnUse"><path
         id="path32"
         d="m -1021,-463 2815,0 0,1696 -2815,0 0,-1696 z" /></clipPath><clipPath
       id="clipPath50"
       clipPathUnits="userSpaceOnUse"><path
         id="path52"
         d="m -1021,-463 2815,0 0,1696 -2815,0 0,-1696 z" /></clipPath><clipPath
       id="clipPath88"
       clipPathUnits="userSpaceOnUse"><path
         id="path90"
         d="m -1021,-463 2815,0 0,1696 -2815,0 0,-1696 z" /></clipPath><clipPath
       id="clipPath108"
       clipPathUnits="userSpaceOnUse"><path
         id="path110"
         d="m -1021,-463 2815,0 0,1696 -2815,0 0,-1696 z" /></clipPath><clipPath
       id="clipPath136"
       clipPathUnits="userSpaceOnUse"><path
         id="path138"
         d="m 75.37572,10.93572 569.24856,0 0,569.24856 -569.24856,0 0,-569.24856 z" /></clipPath><clipPath
       id="clipPath146"
       clipPathUnits="userSpaceOnUse"><path
         id="path148"
         d="m 75.37572,10.93572 569.24856,0 0,569.24856 -569.24856,0 0,-569.24856 z" /></clipPath><clipPath
       id="clipPath162"
       clipPathUnits="userSpaceOnUse"><path
         id="path164"
         d="m 75.37572,10.93572 569.24856,0 0,569.24856 -569.24856,0 0,-569.24856 z" /></clipPath><clipPath
       id="clipPath174"
       clipPathUnits="userSpaceOnUse"><path
         id="path176"
         d="m 75.37572,10.93572 569.24856,0 0,569.24856 -569.24856,0 0,-569.24856 z" /></clipPath></defs><g
     transform="matrix(1.25,0,0,-1.25,0,738.9)"
     id="g10"><path
       id="path12"
       style="fill:#ffffff;fill-opacity:1;fill-rule:nonzero;stroke:none"
       d="m 0,0 720,0 0,591.12 -720,0 L 0,0 Z" /><path
       id="path14"
       style="fill:#ffffff;fill-opacity:1;fill-rule:nonzero;stroke:none"
       d="m 75.37572,10.93572 569.24856,0 0,569.24856 -569.24856,0 0,-569.24856 z" /><path
       id="path16"
       style="fill:#000000;fill-opacity:1;fill-rule:nonzero;stroke:#000000;stroke-width:0.80000001;stroke-linecap:butt;stroke-linejoin:round;stroke-miterlimit:10;stroke-dasharray:none;stroke-opacity:1"
       d="m 122.8131,295.56 0,-3.5" /><g
       transform="translate(110.67247,280.96625)"
       id="g18"><text
         id="text20"
         style="font-variant:normal;font-weight:normal;font-size:10px;font-family:'DejaVu Sans';-inkscape-font-specification:DejaVuSans;writing-mode:lr-tb;fill:#000000;fill-opacity:1;fill-rule:nonzero;stroke:none"
         transform="matrix(1,0,0,-1,8.3789063,0)"><tspan
           id="tspan22"
           y="0"
           x="0 6.3600001 9.54">1.0</tspan></text>
<g
         transform="scale(0.01,0.01)"
         id="g24"><g
           id="g26"><g
             clip-path="url(#clipPath30)"
             id="g28"><path
               id="path34"
               style="fill:#000000;fill-opacity:1;fill-rule:nonzero;stroke:none"
               d="m 106,355 626,0 0,-83 -626,0 0,83" /></g></g></g></g><path
       id="path36"
       style="fill:#000000;fill-opacity:1;fill-rule:nonzero;stroke:#000000;stroke-width:0.80000001;stroke-linecap:butt;stroke-linejoin:round;stroke-miterlimit:10;stroke-dasharray:none;stroke-opacity:1"
       d="m 241.40655,295.56 0,-3.5" /><g
       transform="translate(229.26592,280.96625)"
       id="g38"><text
         id="text40"
         style="font-variant:normal;font-weight:normal;font-size:10px;font-family:'DejaVu Sans';-inkscape-font-specification:DejaVuSans;writing-mode:lr-tb;fill:#000000;fill-opacity:1;fill-rule:nonzero;stroke:none"
         transform="matrix(1,0,0,-1,8.3789063,0)"><tspan
           id="tspan42"
           y="0"
           x="0 6.3600001 9.54">0.5</tspan></text>
<g
         transform="scale(0.01,0.01)"
         id="g44"><g
           id="g46"><g
             clip-path="url(#clipPath50)"
             id="g48"><path
               id="path54"
               style="fill:#000000;fill-opacity:1;fill-rule:nonzero;stroke:none"
               d="m 106,355 626,0 0,-83 -626,0 0,83" /></g></g></g></g><path
       id="path56"
       style="fill:#000000;fill-opacity:1;fill-rule:nonzero;stroke:#000000;stroke-width:0.80000001;stroke-linecap:butt;stroke-linejoin:round;stroke-miterlimit:10;stroke-dasharray:none;stroke-opacity:1"
       d="m 360,295.56 0,-3.5" /><text
       id="text58"
       style="font-variant:normal;font-weight:normal;font-size:10px;font-family:'DejaVu Sans';-inkscape-font-specification:DejaVuSans;writing-mode:lr-tb;fill:#000000;fill-opacity:1;fill-rule:nonzero;stroke:none"
       transform="matrix(1,0,0,-1,352.04687,280.96625)"><tspan
         id="tspan60"
         y="0"
         x="0 6.3600001 9.54">0.0</tspan></text>
<path
       id="path62"
       style="fill:#000000;fill-opacity:1;fill-rule:nonzero;stroke:#000000;stroke-width:0.80000001;stroke-linecap:butt;stroke-linejoin:round;stroke-miterlimit:10;stroke-dasharray:none;stroke-opacity:1"
       d="m 478.59345,295.56 0,-3.5" /><text
       id="text64"
       style="font-variant:normal;font-weight:normal;font-size:10px;font-family:'DejaVu Sans';-inkscape-font-specification:DejaVuSans;writing-mode:lr-tb;fill:#000000;fill-opacity:1;fill-rule:nonzero;stroke:none"
       transform="matrix(1,0,0,-1,470.64033,280.96625)"><tspan
         id="tspan66"
         y="0"
         x="0 6.3600001 9.54">0.5</tspan></text>
<path
       id="path68"
       style="fill:#000000;fill-opacity:1;fill-rule:nonzero;stroke:#000000;stroke-width:0.80000001;stroke-linecap:butt;stroke-linejoin:round;stroke-miterlimit:10;stroke-dasharray:none;stroke-opacity:1"
       d="m 597.1869,295.56 0,-3.5" /><text
       id="text70"
       style="font-variant:normal;font-weight:normal;font-size:10px;font-family:'DejaVu Sans';-inkscape-font-specification:DejaVuSans;writing-mode:lr-tb;fill:#000000;fill-opacity:1;fill-rule:nonzero;stroke:none"
       transform="matrix(1,0,0,-1,589.23378,280.96625)"><tspan
         id="tspan72"
         y="0"
         x="0 6.3600001 9.54">1.0</tspan></text>
<path
       id="path74"
       style="fill:#000000;fill-opacity:1;fill-rule:nonzero;stroke:#000000;stroke-width:0.80000001;stroke-linecap:butt;stroke-linejoin:round;stroke-miterlimit:10;stroke-dasharray:none;stroke-opacity:1"
       d="m 360,58.3731 -3.5,0" /><g
       transform="translate(328.71875,54.576225)"
       id="g76"><text
         id="text78"
         style="font-variant:normal;font-weight:normal;font-size:10px;font-family:'DejaVu Sans';-inkscape-font-specification:DejaVuSans;writing-mode:lr-tb;fill:#000000;fill-opacity:1;fill-rule:nonzero;stroke:none"
         transform="matrix(1,0,0,-1,8.3789063,0)"><tspan
           id="tspan80"
           y="0"
           x="0 6.3600001 9.54">1.0</tspan></text>
<g
         transform="scale(0.01,0.01)"
         id="g82"><g
           id="g84"><g
             clip-path="url(#clipPath88)"
             id="g86"><path
               id="path92"
               style="fill:#000000;fill-opacity:1;fill-rule:nonzero;stroke:none"
               d="m 106,355 626,0 0,-83 -626,0 0,83" /></g></g></g></g><path
       id="path94"
       style="fill:#000000;fill-opacity:1;fill-rule:nonzero;stroke:#000000;stroke-width:0.80000001;stroke-linecap:butt;stroke-linejoin:round;stroke-miterlimit:10;stroke-dasharray:none;stroke-opacity:1"
       d="m 360,176.96655 -3.5,0" /><g
       transform="translate(328.71875,173.16967)"
       id="g96"><text
         id="text98"
         style="font-variant:normal;font-weight:normal;font-size:10px;font-family:'DejaVu Sans';-inkscape-font-specification:DejaVuSans;writing-mode:lr-tb;fill:#000000;fill-opacity:1;fill-rule:nonzero;stroke:none"
         transform="matrix(1,0,0,-1,8.3789063,0)"><tspan
           id="tspan100"
           y="0"
           x="0 6.3600001 9.54">0.5</tspan></text>
<g
         transform="scale(0.01,0.01)"
         id="g102"><g
           id="g104"><g
             clip-path="url(#clipPath108)"
             id="g106"><path
               id="path112"
               style="fill:#000000;fill-opacity:1;fill-rule:nonzero;stroke:none"
               d="m 106,355 626,0 0,-83 -626,0 0,83" /></g></g></g></g><path
       id="path114"
       style="fill:#000000;fill-opacity:1;fill-rule:nonzero;stroke:#000000;stroke-width:0.80000001;stroke-linecap:butt;stroke-linejoin:round;stroke-miterlimit:10;stroke-dasharray:none;stroke-opacity:1"
       d="m 360,295.56 -3.5,0" /><text
       id="text116"
       style="font-variant:normal;font-weight:normal;font-size:10px;font-family:'DejaVu Sans';-inkscape-font-specification:DejaVuSans;writing-mode:lr-tb;fill:#000000;fill-opacity:1;fill-rule:nonzero;stroke:none"
       transform="matrix(1,0,0,-1,337.09375,291.76312)"><tspan
         id="tspan118"
         y="0"
         x="0 6.3600001 9.54">0.0</tspan></text>
<path
       id="path120"
       style="fill:#000000;fill-opacity:1;fill-rule:nonzero;stroke:#000000;stroke-width:0.80000001;stroke-linecap:butt;stroke-linejoin:round;stroke-miterlimit:10;stroke-dasharray:none;stroke-opacity:1"
       d="m 360,414.15345 -3.5,0" /><text
       id="text122"
       style="font-variant:normal;font-weight:normal;font-size:10px;font-family:'DejaVu Sans';-inkscape-font-specification:DejaVuSans;writing-mode:lr-tb;fill:#000000;fill-opacity:1;fill-rule:nonzero;stroke:none"
       transform="matrix(1,0,0,-1,337.09375,410.35657)"><tspan
         id="tspan124"
         y="0"
         x="0 6.3600001 9.54">0.5</tspan></text>
<path
       id="path126"
       style="fill:#000000;fill-opacity:1;fill-rule:nonzero;stroke:#000000;stroke-width:0.80000001;stroke-linecap:butt;stroke-linejoin:round;stroke-miterlimit:10;stroke-dasharray:none;stroke-opacity:1"
       d="m 360,532.7469 -3.5,0" /><text
       id="text128"
       style="font-variant:normal;font-weight:normal;font-size:10px;font-family:'DejaVu Sans';-inkscape-font-specification:DejaVuSans;writing-mode:lr-tb;fill:#000000;fill-opacity:1;fill-rule:nonzero;stroke:none"
       transform="matrix(1,0,0,-1,337.09375,528.95002)"><tspan
         id="tspan130"
         y="0"
         x="0 6.3600001 9.54">1.0</tspan></text>
<g
       id="g132"><g
         clip-path="url(#clipPath136)"
         id="g134"><path
           id="path140"
           style="fill:none;stroke:#00bfbf;stroke-width:1.5;stroke-linecap:butt;stroke-linejoin:round;stroke-miterlimit:10;stroke-dasharray:none;stroke-opacity:1"
           d="m 181.88045,138.9363 -4.44416,5.20358 -4.57533,5.69249 -4.29689,5.69248 -4.03683,5.69249 -4.15898,6.26173 -3.88148,6.26174 -3.69326,6.3937 -3.41549,6.357 -3.29051,6.60375 -2.97122,6.44904 -2.84624,6.70531 -2.63131,6.76935 -2.49193,7.052 -2.11209,6.60996 -1.96183,6.83099 -1.74288,6.83098 -1.64692,7.40023 -1.40097,7.40023 -1.15968,7.40023 -0.9219,7.40023 -0.68675,7.40024 -0.45385,7.40023 -0.2221,7.40023 0.009,7.40023 0.23986,7.40023 0.47172,7.40023 0.70472,7.40023 0.94014,7.40024 1.17811,7.40023 1.4197,7.40023 1.66593,7.40023 1.76101,6.83098 1.98036,6.83098 2.2054,6.83099 2.43716,6.83098 2.6768,6.83098 2.92518,6.83098 3.07896,6.61475 3.26058,6.47797 3.39335,6.26174 3.64275,6.26173 3.93453,6.30586 4.15667,6.21761 4.38206,6.12616 4.00377,5.25881 4.60435,5.69249 4.90664,5.69248 4.7012,5.12931 5.12323,5.26175 5.15314,4.97865 5.66259,5.13877 5.69248,4.84398 5.69249,4.54658 5.69248,4.2703 6.26174,4.3992 5.69248,3.74542 6.26174,3.85719 6.26173,3.59641 6.26173,3.34933 6.52319,3.23872 6.56953,3.01493 6.83098,2.8831 6.84267,2.6407 6.8193,2.39366 6.83098,2.16753 6.83099,1.94317 6.83098,1.7249 6.83098,1.51144 7.40023,1.40098 7.40023,1.15968 7.40023,0.9219 7.40024,0.68675 7.40023,0.45385 7.40023,0.2221 7.40023,-0.009 7.40023,-0.23986 7.40023,-0.47172 7.40023,-0.70472 7.40023,-0.94014 7.40024,-1.1781 7.40023,-1.41971 7.40023,-1.66593 6.83098,-1.76101 6.83098,-1.98037 6.83099,-2.20539 6.83098,-2.43716 6.83098,-2.6768 6.83098,-2.92518 6.61475,-3.07896 6.47797,-3.26058 6.26174,-3.39336 6.26173,-3.64274 6.30586,-3.93453 6.21761,-4.15667 6.12616,-4.38206 5.25881,-4.00377 5.69249,-4.60435 5.69248,-4.90664 5.12931,-4.7012 5.26175,-5.12323 4.97865,-5.15314 5.13877,-5.66259 4.84398,-5.69248 4.54658,-5.69249 4.2703,-5.69248 4.3992,-6.26174 3.74542,-5.69248 3.85719,-6.26174 3.59641,-6.26173 3.34933,-6.26174 3.23872,-6.52319 3.01493,-6.56952 2.8831,-6.83099 2.6407,-6.84266 2.39366,-6.8193 2.16753,-6.83098 1.94317,-6.83099 1.7249,-6.83098 1.51144,-6.83098 1.40098,-7.40023 1.15968,-7.40023 0.9219,-7.40024 0.68675,-7.40023 0.45385,-7.40023 0.2221,-7.40023 -0.009,-7.40023 -0.23986,-7.40023 -0.47172,-7.40023 -0.70472,-7.40023 -0.94014,-7.40024 -1.1781,-7.40023 -1.41971,-7.40023 -1.66593,-7.40023 -1.76101,-6.83098 -1.98036,-6.83098 -2.2054,-6.83099 -2.43716,-6.83098 -2.6768,-6.83098 -2.92518,-6.83099 -3.07896,-6.61474 -3.26058,-6.47797 -3.39336,-6.26174 -3.64274,-6.26173 -3.93453,-6.30586 -4.15667,-6.21761 -4.38206,-6.12616 -4.00377,-5.25881 -4.60435,-5.69249 -4.90664,-5.69248 -4.7012,-5.12931 -5.12323,-5.26175 -5.15314,-4.97865 -5.66259,-5.13877 -5.69248,-4.84399 -5.69249,-4.54657 -5.69248,-4.27031 -6.26174,-4.399192 -5.69248,-3.745422 -6.26174,-3.857185 -6.26173,-3.596412 -6.26174,-3.349331 -6.52319,-3.238717 -6.56952,-3.014936 -6.83099,-2.883091 -6.84266,-2.640701 -6.8193,-2.393659 -6.83098,-2.167533 -6.83099,-1.94317 -6.83098,-1.724902 -6.83098,-1.511444 -7.40023,-1.400971 -7.40023,-1.159687 -7.40024,-0.921894 -7.40023,-0.686757 -7.40023,-0.453847 -7.40023,-0.222096 -7.40023,0.0089 -7.40023,0.239864 -7.40023,0.471721 -7.40023,0.704718 -7.40024,0.940137 -7.40023,1.178108 -7.40023,1.419705 -7.40023,1.665931 -6.83098,1.761007 -6.83098,1.980367 -6.83099,2.205392 -6.83098,2.437164 -6.83098,2.676798 -6.83099,2.925179 -6.61474,3.078962 -6.47797,3.260576 -6.26174,3.393359 -6.26173,3.642749 -6.30586,3.93453 -6.21761,4.15667 -6.12616,4.38206 -5.25881,4.00377 -5.69249,4.60435 -5.34243,4.59592 0,0" /></g></g><g
       id="g142"><g
         clip-path="url(#clipPath146)"
         id="g144"><path
           id="path150"
           style="fill:none;stroke:#000080;stroke-width:1.5;stroke-linecap:butt;stroke-linejoin:round;stroke-miterlimit:10;stroke-dasharray:none;stroke-opacity:1"
           d="M 230.2178,188.1553 122.8131,295.56 360,532.7469 597.1869,295.56 360,58.3731 251.06013,167.31297 l 0,0" /></g></g><g
       id="g152"><path
         id="path154"
         style="fill:none;stroke:#000000;stroke-width:0.80000001;stroke-linecap:square;stroke-linejoin:miter;stroke-miterlimit:10;stroke-dasharray:none;stroke-opacity:1"
         d="m 360,10.93572 0,569.24856" /><path
         id="path156"
         style="fill:none;stroke:#000000;stroke-width:0.80000001;stroke-linecap:square;stroke-linejoin:miter;stroke-miterlimit:10;stroke-dasharray:none;stroke-opacity:1"
         d="m 75.37572,295.56 569.24856,0" /></g><g
       id="g158"><g
         clip-path="url(#clipPath162)"
         id="g160"><text
           id="text166"
           style="font-variant:normal;font-weight:normal;font-size:18px;font-family:'DejaVu Sans';-inkscape-font-specification:DejaVuSans;writing-mode:lr-tb;fill:#00bfbf;fill-opacity:1;fill-rule:nonzero;stroke:none"
           transform="matrix(0.70799324,-0.70621921,-0.70621921,-0.70799324,180.84316,132.24989)"><tspan
             id="tspan168"
             y="0"
             x="0 10.026">L2</tspan></text>
</g></g><g
       id="g170"><g
         clip-path="url(#clipPath174)"
         id="g172"><text
           id="text178"
           style="font-variant:normal;font-weight:normal;font-size:18px;font-family:'DejaVu Sans';-inkscape-font-specification:DejaVuSans;writing-mode:lr-tb;fill:#000080;fill-opacity:1;fill-rule:nonzero;stroke:none"
           transform="matrix(0.70939144,-0.70481472,-0.70481472,-0.70939144,229.52201,181.78614)"><tspan
             id="tspan180"
             y="0"
             x="0 10.026">L1</tspan></text>
</g></g></g></svg>