<?xml version="1.0" encoding="UTF-8" standalone="no"?>
<svg
   xmlns:dc="http://purl.org/dc/elements/1.1/"
   xmlns:cc="http://creativecommons.org/ns#"
   xmlns:rdf="http://www.w3.org/1999/02/22-rdf-syntax-ns#"
   xmlns:svg="http://www.w3.org/2000/svg"
   xmlns="http://www.w3.org/2000/svg"
   viewBox="0 0 1051.25 743.75"
   height="743.75"
   width="1051.25"
   xml:space="preserve"
   version="1.1"
   id="svg2"><metadata
     id="metadata8"><rdf:RDF><cc:Work
         rdf:about=""><dc:format>image/svg+xml</dc:format><dc:type
           rdf:resource="http://purl.org/dc/dcmitype/StillImage" /></cc:Work></rdf:RDF></metadata><defs
     id="defs6"><clipPath
       id="clipPath34"
       clipPathUnits="userSpaceOnUse"><path
         id="path36"
         d="m 202.73,0 436.22,0 0,595.44 -436.22,0 0,-595.44 z" /></clipPath><clipPath
       id="clipPath46"
       clipPathUnits="userSpaceOnUse"><path
         id="path48"
         d="m 236.56,32.56 396.91,0 0,557.4 -396.91,0 0,-557.4 z" /></clipPath></defs><g
     transform="matrix(1.25,0,0,-1.25,0,743.75)"
     id="g10"><g
       id="g12" /><g
       id="g14" /><g
       id="g16" /><g
       id="g18" /><g
       id="g20" /><g
       id="g22" /><g
       id="g24" /><g
       id="g26" /><g
       id="g28" /><g
       id="g30"><g
         clip-path="url(#clipPath34)"
         id="g32"><path
           id="path38"
           style="fill:#ffffff;fill-opacity:1;fill-rule:nonzero;stroke:#ffffff;stroke-width:1.07000005;stroke-linecap:round;stroke-linejoin:round;stroke-miterlimit:10;stroke-dasharray:none;stroke-opacity:1"
           d="m 202.73,0 436.22,0 0,595.44 -436.22,0 0,-595.44 z" /></g></g><g
       id="g40" /><g
       id="g42"><g
         clip-path="url(#clipPath46)"
         id="g44"><path
           id="path50"
           style="fill:#ebebeb;fill-opacity:1;fill-rule:nonzero;stroke:none"
           d="m 236.56,32.56 396.91,0 0,557.4 -396.91,0 0,-557.4 z" /><path
           id="path52"
           style="fill:none;stroke:#ffffff;stroke-width:0.52999997;stroke-linecap:butt;stroke-linejoin:round;stroke-miterlimit:10;stroke-dasharray:none;stroke-opacity:1"
           d="m 236.56,80.09 396.91,0" /><path
           id="path54"
           style="fill:none;stroke:#ffffff;stroke-width:0.52999997;stroke-linecap:butt;stroke-linejoin:round;stroke-miterlimit:10;stroke-dasharray:none;stroke-opacity:1"
           d="m 236.56,193.52 396.91,0" /><path
           id="path56"
           style="fill:none;stroke:#ffffff;stroke-width:0.52999997;stroke-linecap:butt;stroke-linejoin:round;stroke-miterlimit:10;stroke-dasharray:none;stroke-opacity:1"
           d="m 236.56,306.95 396.91,0" /><path
           id="path58"
           style="fill:none;stroke:#ffffff;stroke-width:0.52999997;stroke-linecap:butt;stroke-linejoin:round;stroke-miterlimit:10;stroke-dasharray:none;stroke-opacity:1"
           d="m 236.56,420.38 396.91,0" /><path
           id="path60"
           style="fill:none;stroke:#ffffff;stroke-width:0.52999997;stroke-linecap:butt;stroke-linejoin:round;stroke-miterlimit:10;stroke-dasharray:none;stroke-opacity:1"
           d="m 236.56,533.81 396.91,0" /><path
           id="path62"
           style="fill:none;stroke:#ffffff;stroke-width:0.52999997;stroke-linecap:butt;stroke-linejoin:round;stroke-miterlimit:10;stroke-dasharray:none;stroke-opacity:1"
           d="m 268.32,32.56 0,557.4" /><path
           id="path64"
           style="fill:none;stroke:#ffffff;stroke-width:0.52999997;stroke-linecap:butt;stroke-linejoin:round;stroke-miterlimit:10;stroke-dasharray:none;stroke-opacity:1"
           d="m 381.75,32.56 0,557.4" /><path
           id="path66"
           style="fill:none;stroke:#ffffff;stroke-width:0.52999997;stroke-linecap:butt;stroke-linejoin:round;stroke-miterlimit:10;stroke-dasharray:none;stroke-opacity:1"
           d="m 495.18,32.56 0,557.4" /><path
           id="path68"
           style="fill:none;stroke:#ffffff;stroke-width:0.52999997;stroke-linecap:butt;stroke-linejoin:round;stroke-miterlimit:10;stroke-dasharray:none;stroke-opacity:1"
           d="m 608.61,32.56 0,557.4" /><path
           id="path70"
           style="fill:none;stroke:#ffffff;stroke-width:1.07000005;stroke-linecap:butt;stroke-linejoin:round;stroke-miterlimit:10;stroke-dasharray:none;stroke-opacity:1"
           d="m 236.56,136.8 396.91,0" /><path
           id="path72"
           style="fill:none;stroke:#ffffff;stroke-width:1.07000005;stroke-linecap:butt;stroke-linejoin:round;stroke-miterlimit:10;stroke-dasharray:none;stroke-opacity:1"
           d="m 236.56,250.23 396.91,0" /><path
           id="path74"
           style="fill:none;stroke:#ffffff;stroke-width:1.07000005;stroke-linecap:butt;stroke-linejoin:round;stroke-miterlimit:10;stroke-dasharray:none;stroke-opacity:1"
           d="m 236.56,363.66 396.91,0" /><path
           id="path76"
           style="fill:none;stroke:#ffffff;stroke-width:1.07000005;stroke-linecap:butt;stroke-linejoin:round;stroke-miterlimit:10;stroke-dasharray:none;stroke-opacity:1"
           d="m 236.56,477.09 396.91,0" /><path
           id="path78"
           style="fill:none;stroke:#ffffff;stroke-width:1.07000005;stroke-linecap:butt;stroke-linejoin:round;stroke-miterlimit:10;stroke-dasharray:none;stroke-opacity:1"
           d="m 325.03,32.56 0,557.4" /><path
           id="path80"
           style="fill:none;stroke:#ffffff;stroke-width:1.07000005;stroke-linecap:butt;stroke-linejoin:round;stroke-miterlimit:10;stroke-dasharray:none;stroke-opacity:1"
           d="m 438.46,32.56 0,557.4" /><path
           id="path82"
           style="fill:none;stroke:#ffffff;stroke-width:1.07000005;stroke-linecap:butt;stroke-linejoin:round;stroke-miterlimit:10;stroke-dasharray:none;stroke-opacity:1"
           d="m 551.89,32.56 0,557.4" /><path
           id="path84"
           style="fill:none;stroke:#832424;stroke-width:1.07000005;stroke-linecap:butt;stroke-linejoin:round;stroke-miterlimit:10;stroke-dasharray:none;stroke-opacity:1"
           d="M 438.46,250.23 278.7,257.02" /><path
           id="path86"
           style="fill:none;stroke:#832424;stroke-width:1.07000005;stroke-linecap:butt;stroke-linejoin:round;stroke-miterlimit:10;stroke-dasharray:none;stroke-opacity:1"
           d="m 284,259.79 -5.3,-2.77 5.05,-3.2" /><path
           id="path88"
           style="fill:none;stroke:#832424;stroke-width:1.07000005;stroke-linecap:butt;stroke-linejoin:round;stroke-miterlimit:10;stroke-dasharray:none;stroke-opacity:1"
           d="m 438.46,250.23 163.59,3.88" /><path
           id="path90"
           style="fill:none;stroke:#832424;stroke-width:1.07000005;stroke-linecap:butt;stroke-linejoin:round;stroke-miterlimit:10;stroke-dasharray:none;stroke-opacity:1"
           d="m 596.94,250.99 5.11,3.12 -5.25,2.86" /><path
           id="path92"
           style="fill:none;stroke:#832424;stroke-width:1.07000005;stroke-linecap:butt;stroke-linejoin:round;stroke-miterlimit:10;stroke-dasharray:none;stroke-opacity:1"
           d="M 438.46,250.23 599.93,228.32" /><path
           id="path94"
           style="fill:none;stroke:#832424;stroke-width:1.07000005;stroke-linecap:butt;stroke-linejoin:round;stroke-miterlimit:10;stroke-dasharray:none;stroke-opacity:1"
           d="m 594.4,226.05 5.53,2.27 -4.72,3.65" /><path
           id="path96"
           style="fill:none;stroke:#832424;stroke-width:1.07000005;stroke-linecap:butt;stroke-linejoin:round;stroke-miterlimit:10;stroke-dasharray:none;stroke-opacity:1"
           d="m 438.46,250.23 149.17,66.43" /><path
           id="path98"
           style="fill:none;stroke:#832424;stroke-width:1.07000005;stroke-linecap:butt;stroke-linejoin:round;stroke-miterlimit:10;stroke-dasharray:none;stroke-opacity:1"
           d="m 584.12,311.82 3.51,4.84 -5.94,0.62" /><path
           id="path100"
           style="fill:none;stroke:#832424;stroke-width:1.07000005;stroke-linecap:butt;stroke-linejoin:round;stroke-miterlimit:10;stroke-dasharray:none;stroke-opacity:1"
           d="M 438.46,250.23 311.75,334.47" /><path
           id="path102"
           style="fill:none;stroke:#832424;stroke-width:1.07000005;stroke-linecap:butt;stroke-linejoin:round;stroke-miterlimit:10;stroke-dasharray:none;stroke-opacity:1"
           d="m 317.72,334.09 -5.97,0.38 2.66,-5.36" /><path
           id="path104"
           style="fill:none;stroke:#832424;stroke-width:1.07000005;stroke-linecap:butt;stroke-linejoin:round;stroke-miterlimit:10;stroke-dasharray:none;stroke-opacity:1"
           d="M 438.46,250.23 590.23,207.84" /><path
           id="path106"
           style="fill:none;stroke:#832424;stroke-width:1.07000005;stroke-linecap:butt;stroke-linejoin:round;stroke-miterlimit:10;stroke-dasharray:none;stroke-opacity:1"
           d="m 584.44,206.35 5.79,1.49 -4.18,4.27" /><path
           id="path108"
           style="fill:none;stroke:#832424;stroke-width:1.07000005;stroke-linecap:butt;stroke-linejoin:round;stroke-miterlimit:10;stroke-dasharray:none;stroke-opacity:1"
           d="M 438.46,250.23 347.3,130.89" /><path
           id="path110"
           style="fill:none;stroke:#832424;stroke-width:1.07000005;stroke-linecap:butt;stroke-linejoin:round;stroke-miterlimit:10;stroke-dasharray:none;stroke-opacity:1"
           d="m 348.06,136.82 -0.76,-5.93 5.51,2.3" /><path
           id="path112"
           style="fill:none;stroke:#832424;stroke-width:1.07000005;stroke-linecap:butt;stroke-linejoin:round;stroke-miterlimit:10;stroke-dasharray:none;stroke-opacity:1"
           d="m 438.46,250.23 -85.12,135.8" /><path
           id="path114"
           style="fill:none;stroke:#832424;stroke-width:1.07000005;stroke-linecap:butt;stroke-linejoin:round;stroke-miterlimit:10;stroke-dasharray:none;stroke-opacity:1"
           d="m 358.62,383.23 -5.28,2.8 0.22,-5.97" /><path
           id="path116"
           style="fill:none;stroke:#832424;stroke-width:1.07000005;stroke-linecap:butt;stroke-linejoin:round;stroke-miterlimit:10;stroke-dasharray:none;stroke-opacity:1"
           d="m 438.46,250.23 99.39,119.41" /><path
           id="path118"
           style="fill:none;stroke:#832424;stroke-width:1.07000005;stroke-linecap:butt;stroke-linejoin:round;stroke-miterlimit:10;stroke-dasharray:none;stroke-opacity:1"
           d="m 536.84,363.75 1.01,5.89 -5.61,-2.07" /><path
           id="path120"
           style="fill:#000000;fill-opacity:1;fill-rule:nonzero;stroke:#000000;stroke-width:0.70999998;stroke-linecap:round;stroke-linejoin:round;stroke-miterlimit:10;stroke-dasharray:none;stroke-opacity:1"
           d="m 404.83,342.48 c 0,1.07 0.88,1.95 1.95,1.95 1.08,0 1.96,-0.88 1.96,-1.95 0,-1.08 -0.88,-1.96 -1.96,-1.96 -1.07,0 -1.95,0.88 -1.95,1.96" /><path
           id="path122"
           style="fill:#000000;fill-opacity:1;fill-rule:nonzero;stroke:#000000;stroke-width:0.70999998;stroke-linecap:round;stroke-linejoin:round;stroke-miterlimit:10;stroke-dasharray:none;stroke-opacity:1"
           d="m 406.12,327.03 c 0,1.07 0.88,1.95 1.95,1.95 1.08,0 1.96,-0.88 1.96,-1.95 0,-1.08 -0.88,-1.96 -1.96,-1.96 -1.07,0 -1.95,0.88 -1.95,1.96" /><path
           id="path124"
           style="fill:#000000;fill-opacity:1;fill-rule:nonzero;stroke:#000000;stroke-width:0.70999998;stroke-linecap:round;stroke-linejoin:round;stroke-miterlimit:10;stroke-dasharray:none;stroke-opacity:1"
           d="m 326.82,224.56 c 0,1.07 0.88,1.95 1.96,1.95 1.07,0 1.95,-0.88 1.95,-1.95 0,-1.08 -0.88,-1.96 -1.95,-1.96 -1.08,0 -1.96,0.88 -1.96,1.96" /><path
           id="path126"
           style="fill:#000000;fill-opacity:1;fill-rule:nonzero;stroke:#000000;stroke-width:0.70999998;stroke-linecap:round;stroke-linejoin:round;stroke-miterlimit:10;stroke-dasharray:none;stroke-opacity:1"
           d="m 426.24,94.83 c 0,1.08 0.88,1.96 1.96,1.96 1.07,0 1.95,-0.88 1.95,-1.96 0,-1.07 -0.88,-1.95 -1.95,-1.95 -1.08,0 -1.96,0.88 -1.96,1.95" /><path
           id="path128"
           style="fill:#000000;fill-opacity:1;fill-rule:nonzero;stroke:#000000;stroke-width:0.70999998;stroke-linecap:round;stroke-linejoin:round;stroke-miterlimit:10;stroke-dasharray:none;stroke-opacity:1"
           d="m 512.2,185.09 c 0,1.07 0.88,1.95 1.96,1.95 1.07,0 1.95,-0.88 1.95,-1.95 0,-1.08 -0.88,-1.96 -1.95,-1.96 -1.08,0 -1.96,0.88 -1.96,1.96" /><path
           id="path130"
           style="fill:#000000;fill-opacity:1;fill-rule:nonzero;stroke:#000000;stroke-width:0.70999998;stroke-linecap:round;stroke-linejoin:round;stroke-miterlimit:10;stroke-dasharray:none;stroke-opacity:1"
           d="m 438.88,57.9 c 0,1.07 0.88,1.95 1.95,1.95 1.08,0 1.96,-0.88 1.96,-1.95 0,-1.08 -0.88,-1.96 -1.96,-1.96 -1.07,0 -1.95,0.88 -1.95,1.96" /><path
           id="path132"
           style="fill:#000000;fill-opacity:1;fill-rule:nonzero;stroke:#000000;stroke-width:0.70999998;stroke-linecap:round;stroke-linejoin:round;stroke-miterlimit:10;stroke-dasharray:none;stroke-opacity:1"
           d="m 565.97,278.61 c 0,1.08 0.88,1.96 1.96,1.96 1.07,0 1.95,-0.88 1.95,-1.96 0,-1.07 -0.88,-1.95 -1.95,-1.95 -1.08,0 -1.96,0.88 -1.96,1.95" /><path
           id="path134"
           style="fill:#000000;fill-opacity:1;fill-rule:nonzero;stroke:#000000;stroke-width:0.70999998;stroke-linecap:round;stroke-linejoin:round;stroke-miterlimit:10;stroke-dasharray:none;stroke-opacity:1"
           d="m 339.03,187.29 c 0,1.08 0.88,1.96 1.96,1.96 1.07,0 1.95,-0.88 1.95,-1.96 0,-1.07 -0.88,-1.95 -1.95,-1.95 -1.08,0 -1.96,0.88 -1.96,1.95" /><path
           id="path136"
           style="fill:#000000;fill-opacity:1;fill-rule:nonzero;stroke:#000000;stroke-width:0.70999998;stroke-linecap:round;stroke-linejoin:round;stroke-miterlimit:10;stroke-dasharray:none;stroke-opacity:1"
           d="m 327.05,147.6 c 0,1.07 0.88,1.95 1.95,1.95 1.08,0 1.95,-0.88 1.95,-1.95 0,-1.08 -0.87,-1.96 -1.95,-1.96 -1.07,0 -1.95,0.88 -1.95,1.96" /><path
           id="path138"
           style="fill:#000000;fill-opacity:1;fill-rule:nonzero;stroke:#000000;stroke-width:0.70999998;stroke-linecap:round;stroke-linejoin:round;stroke-miterlimit:10;stroke-dasharray:none;stroke-opacity:1"
           d="m 418.27,295.91 c 0,1.08 0.87,1.96 1.95,1.96 1.08,0 1.95,-0.88 1.95,-1.96 0,-1.07 -0.87,-1.95 -1.95,-1.95 -1.08,0 -1.95,0.88 -1.95,1.95" /><path
           id="path140"
           style="fill:#000000;fill-opacity:1;fill-rule:nonzero;stroke:#000000;stroke-width:0.70999998;stroke-linecap:round;stroke-linejoin:round;stroke-miterlimit:10;stroke-dasharray:none;stroke-opacity:1"
           d="m 419.03,282.63 c 0,1.08 0.88,1.96 1.95,1.96 1.08,0 1.96,-0.88 1.96,-1.96 0,-1.07 -0.88,-1.95 -1.96,-1.95 -1.07,0 -1.95,0.88 -1.95,1.95" /><path
           id="path142"
           style="fill:#000000;fill-opacity:1;fill-rule:nonzero;stroke:#000000;stroke-width:0.70999998;stroke-linecap:round;stroke-linejoin:round;stroke-miterlimit:10;stroke-dasharray:none;stroke-opacity:1"
           d="m 526.4,193.31 c 0,1.07 0.88,1.95 1.95,1.95 1.08,0 1.96,-0.88 1.96,-1.95 0,-1.08 -0.88,-1.96 -1.96,-1.96 -1.07,0 -1.95,0.88 -1.95,1.96" /><path
           id="path144"
           style="fill:#000000;fill-opacity:1;fill-rule:nonzero;stroke:#000000;stroke-width:0.70999998;stroke-linecap:round;stroke-linejoin:round;stroke-miterlimit:10;stroke-dasharray:none;stroke-opacity:1"
           d="m 516.21,194.07 c 0,1.08 0.88,1.95 1.96,1.95 1.07,0 1.95,-0.87 1.95,-1.95 0,-1.08 -0.88,-1.95 -1.95,-1.95 -1.08,0 -1.96,0.87 -1.96,1.95" /><path
           id="path146"
           style="fill:#000000;fill-opacity:1;fill-rule:nonzero;stroke:#000000;stroke-width:0.70999998;stroke-linecap:round;stroke-linejoin:round;stroke-miterlimit:10;stroke-dasharray:none;stroke-opacity:1"
           d="m 521.26,184.11 c 0,1.07 0.88,1.95 1.96,1.95 1.07,0 1.95,-0.88 1.95,-1.95 0,-1.08 -0.88,-1.96 -1.95,-1.96 -1.08,0 -1.96,0.88 -1.96,1.96" /><path
           id="path148"
           style="fill:#000000;fill-opacity:1;fill-rule:nonzero;stroke:#000000;stroke-width:0.70999998;stroke-linecap:round;stroke-linejoin:round;stroke-miterlimit:10;stroke-dasharray:none;stroke-opacity:1"
           d="m 610.58,175.7 c 0,1.08 0.88,1.96 1.95,1.96 1.08,0 1.96,-0.88 1.96,-1.96 0,-1.07 -0.88,-1.95 -1.96,-1.95 -1.07,0 -1.95,0.88 -1.95,1.95" /><path
           id="path150"
           style="fill:#000000;fill-opacity:1;fill-rule:nonzero;stroke:#000000;stroke-width:0.70999998;stroke-linecap:round;stroke-linejoin:round;stroke-miterlimit:10;stroke-dasharray:none;stroke-opacity:1"
           d="m 613.48,183.99 c 0,1.07 0.88,1.95 1.95,1.95 1.08,0 1.96,-0.88 1.96,-1.95 0,-1.08 -0.88,-1.96 -1.96,-1.96 -1.07,0 -1.95,0.88 -1.95,1.96" /><path
           id="path152"
           style="fill:#000000;fill-opacity:1;fill-rule:nonzero;stroke:#000000;stroke-width:0.70999998;stroke-linecap:round;stroke-linejoin:round;stroke-miterlimit:10;stroke-dasharray:none;stroke-opacity:1"
           d="m 595.43,212.45 c 0,1.08 0.88,1.96 1.95,1.96 1.08,0 1.96,-0.88 1.96,-1.96 0,-1.07 -0.88,-1.95 -1.96,-1.95 -1.07,0 -1.95,0.88 -1.95,1.95" /><path
           id="path154"
           style="fill:#000000;fill-opacity:1;fill-rule:nonzero;stroke:#000000;stroke-width:0.70999998;stroke-linecap:round;stroke-linejoin:round;stroke-miterlimit:10;stroke-dasharray:none;stroke-opacity:1"
           d="m 271.85,216.22 c 0,1.07 0.88,1.95 1.95,1.95 1.08,0 1.96,-0.88 1.96,-1.95 0,-1.08 -0.88,-1.96 -1.96,-1.96 -1.07,0 -1.95,0.88 -1.95,1.96" /><path
           id="path156"
           style="fill:#000000;fill-opacity:1;fill-rule:nonzero;stroke:#000000;stroke-width:0.70999998;stroke-linecap:round;stroke-linejoin:round;stroke-miterlimit:10;stroke-dasharray:none;stroke-opacity:1"
           d="m 252.65,305.92 c 0,1.08 0.88,1.96 1.96,1.96 1.07,0 1.95,-0.88 1.95,-1.96 0,-1.07 -0.88,-1.95 -1.95,-1.95 -1.08,0 -1.96,0.88 -1.96,1.95" /><path
           id="path158"
           style="fill:#000000;fill-opacity:1;fill-rule:nonzero;stroke:#000000;stroke-width:0.70999998;stroke-linecap:round;stroke-linejoin:round;stroke-miterlimit:10;stroke-dasharray:none;stroke-opacity:1"
           d="m 252.65,219.79 c 0,1.08 0.88,1.96 1.95,1.96 1.08,0 1.96,-0.88 1.96,-1.96 0,-1.07 -0.88,-1.95 -1.96,-1.95 -1.07,0 -1.95,0.88 -1.95,1.95" /><path
           id="path160"
           style="fill:#000000;fill-opacity:1;fill-rule:nonzero;stroke:#000000;stroke-width:0.70999998;stroke-linecap:round;stroke-linejoin:round;stroke-miterlimit:10;stroke-dasharray:none;stroke-opacity:1"
           d="m 345.71,126.61 c 0,1.08 0.88,1.96 1.95,1.96 1.08,0 1.96,-0.88 1.96,-1.96 0,-1.07 -0.88,-1.95 -1.96,-1.95 -1.07,0 -1.95,0.88 -1.95,1.95" /><path
           id="path162"
           style="fill:#000000;fill-opacity:1;fill-rule:nonzero;stroke:#000000;stroke-width:0.70999998;stroke-linecap:round;stroke-linejoin:round;stroke-miterlimit:10;stroke-dasharray:none;stroke-opacity:1"
           d="m 522.55,161.08 c 0,1.08 0.88,1.96 1.96,1.96 1.07,0 1.95,-0.88 1.95,-1.96 0,-1.07 -0.88,-1.95 -1.95,-1.95 -1.08,0 -1.96,0.88 -1.96,1.95" /><path
           id="path164"
           style="fill:#000000;fill-opacity:1;fill-rule:nonzero;stroke:#000000;stroke-width:0.70999998;stroke-linecap:round;stroke-linejoin:round;stroke-miterlimit:10;stroke-dasharray:none;stroke-opacity:1"
           d="m 506.38,173.37 c 0,1.07 0.88,1.95 1.95,1.95 1.08,0 1.96,-0.88 1.96,-1.95 0,-1.08 -0.88,-1.95 -1.96,-1.95 -1.07,0 -1.95,0.87 -1.95,1.95" /><path
           id="path166"
           style="fill:#000000;fill-opacity:1;fill-rule:nonzero;stroke:#000000;stroke-width:0.70999998;stroke-linecap:round;stroke-linejoin:round;stroke-miterlimit:10;stroke-dasharray:none;stroke-opacity:1"
           d="m 560.58,310.37 c 0,1.07 0.88,1.95 1.96,1.95 1.07,0 1.95,-0.88 1.95,-1.95 0,-1.08 -0.88,-1.96 -1.95,-1.96 -1.08,0 -1.96,0.88 -1.96,1.96" /><path
           id="path168"
           style="fill:#000000;fill-opacity:1;fill-rule:nonzero;stroke:#000000;stroke-width:0.70999998;stroke-linecap:round;stroke-linejoin:round;stroke-miterlimit:10;stroke-dasharray:none;stroke-opacity:1"
           d="m 525.9,173.26 c 0,1.08 0.88,1.96 1.96,1.96 1.07,0 1.95,-0.88 1.95,-1.96 0,-1.07 -0.88,-1.95 -1.95,-1.95 -1.08,0 -1.96,0.88 -1.96,1.95" /><path
           id="path170"
           style="fill:#000000;fill-opacity:1;fill-rule:nonzero;stroke:#000000;stroke-width:0.70999998;stroke-linecap:round;stroke-linejoin:round;stroke-miterlimit:10;stroke-dasharray:none;stroke-opacity:1"
           d="m 286.35,230.17 c 0,1.07 0.88,1.95 1.95,1.95 1.08,0 1.96,-0.88 1.96,-1.95 0,-1.08 -0.88,-1.96 -1.96,-1.96 -1.07,0 -1.95,0.88 -1.95,1.96" /><path
           id="path172"
           style="fill:#000000;fill-opacity:1;fill-rule:nonzero;stroke:#000000;stroke-width:0.70999998;stroke-linecap:round;stroke-linejoin:round;stroke-miterlimit:10;stroke-dasharray:none;stroke-opacity:1"
           d="m 303.95,378.94 c 0,1.08 0.87,1.96 1.95,1.96 1.08,0 1.95,-0.88 1.95,-1.96 0,-1.07 -0.87,-1.95 -1.95,-1.95 -1.08,0 -1.95,0.88 -1.95,1.95" /><path
           id="path174"
           style="fill:#000000;fill-opacity:1;fill-rule:nonzero;stroke:#000000;stroke-width:0.70999998;stroke-linecap:round;stroke-linejoin:round;stroke-miterlimit:10;stroke-dasharray:none;stroke-opacity:1"
           d="m 297.77,359.99 c 0,1.08 0.88,1.95 1.95,1.95 1.08,0 1.96,-0.87 1.96,-1.95 0,-1.08 -0.88,-1.95 -1.96,-1.95 -1.07,0 -1.95,0.87 -1.95,1.95" /><path
           id="path176"
           style="fill:#000000;fill-opacity:1;fill-rule:nonzero;stroke:#000000;stroke-width:0.70999998;stroke-linecap:round;stroke-linejoin:round;stroke-miterlimit:10;stroke-dasharray:none;stroke-opacity:1"
           d="m 510.35,487.69 c 0,1.07 0.88,1.95 1.95,1.95 1.08,0 1.96,-0.88 1.96,-1.95 0,-1.08 -0.88,-1.96 -1.96,-1.96 -1.07,0 -1.95,0.88 -1.95,1.96" /><path
           id="path178"
           style="fill:#000000;fill-opacity:1;fill-rule:nonzero;stroke:#000000;stroke-width:0.70999998;stroke-linecap:round;stroke-linejoin:round;stroke-miterlimit:10;stroke-dasharray:none;stroke-opacity:1"
           d="m 440.35,473.06 c 0,1.08 0.88,1.96 1.95,1.96 1.08,0 1.96,-0.88 1.96,-1.96 0,-1.07 -0.88,-1.95 -1.96,-1.95 -1.07,0 -1.95,0.88 -1.95,1.95" /><path
           id="path180"
           style="fill:#000000;fill-opacity:1;fill-rule:nonzero;stroke:#000000;stroke-width:0.70999998;stroke-linecap:round;stroke-linejoin:round;stroke-miterlimit:10;stroke-dasharray:none;stroke-opacity:1"
           d="m 577.81,564.62 c 0,1.08 0.88,1.96 1.95,1.96 1.08,0 1.96,-0.88 1.96,-1.96 0,-1.07 -0.88,-1.95 -1.96,-1.95 -1.07,0 -1.95,0.88 -1.95,1.95" /><path
           id="path182"
           style="fill:#000000;fill-opacity:1;fill-rule:nonzero;stroke:#000000;stroke-width:0.70999998;stroke-linecap:round;stroke-linejoin:round;stroke-miterlimit:10;stroke-dasharray:none;stroke-opacity:1"
           d="m 345.68,258.75 c 0,1.08 0.88,1.96 1.95,1.96 1.08,0 1.96,-0.88 1.96,-1.96 0,-1.07 -0.88,-1.95 -1.96,-1.95 -1.07,0 -1.95,0.88 -1.95,1.95" /><text
           id="text184"
           style="font-variant:normal;font-weight:normal;font-size:8.9980278px;font-family:Helvetica;-inkscape-font-specification:Helvetica;writing-mode:lr-tb;fill:#8b0000;fill-opacity:1;fill-rule:nonzero;stroke:none"
           transform="matrix(0.99910785,-0.04223148,-0.04223148,-0.99910785,256.7,254.72)"><tspan
             id="tspan186"
             y="0"
             x="0 7.495357 12.49826">mpg</tspan></text>
<text
           id="text188"
           style="font-variant:normal;font-weight:normal;font-size:9.00244999px;font-family:Helvetica;-inkscape-font-specification:Helvetica;writing-mode:lr-tb;fill:#8b0000;fill-opacity:1;fill-rule:nonzero;stroke:none"
           transform="matrix(0.99972789,0.02332698,0.02332698,-0.99972789,604.87,250.94)"><tspan
             id="tspan190"
             y="0"
             x="0 4.501225 9.00245">cyl</tspan></text>
<text
           id="text192"
           style="font-variant:normal;font-weight:normal;font-size:9.00169468px;font-family:Helvetica;-inkscape-font-specification:Helvetica;writing-mode:lr-tb;fill:#8b0000;fill-opacity:1;fill-rule:nonzero;stroke:none"
           transform="matrix(0.99092457,-0.13441914,-0.13441914,-0.99092457,603.59,224.56)"><tspan
             id="tspan194"
             y="0"
             x="0 5.0049419 7.0033183 11.504166">disp</tspan></text>
<text
           id="text196"
           style="font-variant:normal;font-weight:normal;font-size:8.99800014px;font-family:Helvetica;-inkscape-font-specification:Helvetica;writing-mode:lr-tb;fill:#8b0000;fill-opacity:1;fill-rule:nonzero;stroke:none"
           transform="matrix(0.91353636,0.40675707,0.40675707,-0.91353636,591.23,314.72)"><tspan
             id="tspan198"
             y="0"
             x="0 5.0028877">hp</tspan></text>
<text
           id="text200"
           style="font-variant:normal;font-weight:normal;font-size:8.9944706px;font-family:Helvetica;-inkscape-font-specification:Helvetica;writing-mode:lr-tb;fill:#8b0000;fill-opacity:1;fill-rule:nonzero;stroke:none"
           transform="matrix(0.83273384,-0.5536735,-0.5536735,-0.83273384,293.92,342.45)"><tspan
             id="tspan202"
             y="0"
             x="0 5.0009255 7.9061394 12.907065">drat</tspan></text>
<text
           id="text204"
           style="font-variant:normal;font-weight:normal;font-size:9.00140572px;font-family:Helvetica;-inkscape-font-specification:Helvetica;writing-mode:lr-tb;fill:#8b0000;fill-opacity:1;fill-rule:nonzero;stroke:none"
           transform="matrix(0.96318292,-0.26884691,-0.26884691,-0.96318292,591.53,204.12)"><tspan
             id="tspan206"
             y="0"
             x="0 6.4990149">wt</tspan></text>
<text
           id="text208"
           style="font-variant:normal;font-weight:normal;font-size:8.99633789px;font-family:Helvetica;-inkscape-font-specification:Helvetica;writing-mode:lr-tb;fill:#8b0000;fill-opacity:1;fill-rule:nonzero;stroke:none"
           transform="matrix(0.6069136,0.79476781,0.79476781,-0.6069136,335.44,110.05)"><tspan
             id="tspan210"
             y="0"
             x="0 5.0019641 9.5001335 14.502097">qsec</tspan></text>
<text
           id="text212"
           style="font-variant:normal;font-weight:normal;font-size:9.00362682px;font-family:Helvetica;-inkscape-font-specification:Helvetica;writing-mode:lr-tb;fill:#8b0000;fill-opacity:1;fill-rule:nonzero;stroke:none"
           transform="matrix(0.53089716,-0.84743626,-0.84743626,-0.53089716,338.65,403.39)"><tspan
             id="tspan214"
             y="0"
             x="0 5.0060167 10.012033 15.01805">gear</tspan></text>
<text
           id="text216"
           style="font-variant:normal;font-weight:normal;font-size:9.0035553px;font-family:Helvetica;-inkscape-font-specification:Helvetica;writing-mode:lr-tb;fill:#8b0000;fill-opacity:1;fill-rule:nonzero;stroke:none"
           transform="matrix(0.63974731,0.76858531,0.76858531,-0.63974731,543.14,370.94)"><tspan
             id="tspan218"
             y="0"
             x="0 4.5017776 9.5077543 12.505938">carb</tspan></text>
</g></g><g
       id="g220" /><g
       id="g222" /><g
       id="g224" /><g
       id="g226" /><g
       id="g228" /><g
       id="g230" /><g
       id="g232" /><g
       id="g234" /><g
       id="g236" /><g
       id="g238" /><g
       id="g240" /><g
       id="g242" /><g
       id="g244" /><g
       id="g246" /><g
       id="g248" /><g
       id="g250"><text
         id="text252"
         style="font-variant:normal;font-weight:normal;font-size:9px;font-family:Helvetica;-inkscape-font-specification:Helvetica;writing-mode:lr-tb;fill:#4d4d4d;fill-opacity:1;fill-rule:nonzero;stroke:none"
         transform="matrix(1,0,0,-1,221.37,133.57)"><tspan
           id="tspan254"
           y="0"
           x="0 5.256">−1</tspan></text>
<text
         id="text256"
         style="font-variant:normal;font-weight:normal;font-size:9px;font-family:Helvetica;-inkscape-font-specification:Helvetica;writing-mode:lr-tb;fill:#4d4d4d;fill-opacity:1;fill-rule:nonzero;stroke:none"
         transform="matrix(1,0,0,-1,226.63,247)"><tspan
           id="tspan258"
           y="0"
           x="0">0</tspan></text>
<text
         id="text260"
         style="font-variant:normal;font-weight:normal;font-size:9px;font-family:Helvetica;-inkscape-font-specification:Helvetica;writing-mode:lr-tb;fill:#4d4d4d;fill-opacity:1;fill-rule:nonzero;stroke:none"
         transform="matrix(1,0,0,-1,226.63,360.43)"><tspan
           id="tspan262"
           y="0"
           x="0">1</tspan></text>
<text
         id="text264"
         style="font-variant:normal;font-weight:normal;font-size:9px;font-family:Helvetica;-inkscape-font-specification:Helvetica;writing-mode:lr-tb;fill:#4d4d4d;fill-opacity:1;fill-rule:nonzero;stroke:none"
         transform="matrix(1,0,0,-1,226.63,473.86)"><tspan
           id="tspan266"
           y="0"
           x="0">2</tspan></text>
</g><g
       id="g268" /><g
       id="g270"><path
         id="path272"
         style="fill:none;stroke:#333333;stroke-width:1.07000005;stroke-linecap:butt;stroke-linejoin:round;stroke-miterlimit:10;stroke-dasharray:none;stroke-opacity:1"
         d="m 233.82,136.8 2.74,0" /><path
         id="path274"
         style="fill:none;stroke:#333333;stroke-width:1.07000005;stroke-linecap:butt;stroke-linejoin:round;stroke-miterlimit:10;stroke-dasharray:none;stroke-opacity:1"
         d="m 233.82,250.23 2.74,0" /><path
         id="path276"
         style="fill:none;stroke:#333333;stroke-width:1.07000005;stroke-linecap:butt;stroke-linejoin:round;stroke-miterlimit:10;stroke-dasharray:none;stroke-opacity:1"
         d="m 233.82,363.66 2.74,0" /><path
         id="path278"
         style="fill:none;stroke:#333333;stroke-width:1.07000005;stroke-linecap:butt;stroke-linejoin:round;stroke-miterlimit:10;stroke-dasharray:none;stroke-opacity:1"
         d="m 233.82,477.09 2.74,0" /></g><g
       id="g280" /><g
       id="g282" /><g
       id="g284" /><g
       id="g286" /><g
       id="g288" /><g
       id="g290" /><g
       id="g292" /><g
       id="g294" /><g
       id="g296" /><g
       id="g298"><path
         id="path300"
         style="fill:none;stroke:#333333;stroke-width:1.07000005;stroke-linecap:butt;stroke-linejoin:round;stroke-miterlimit:10;stroke-dasharray:none;stroke-opacity:1"
         d="m 325.03,29.82 0,2.74" /><path
         id="path302"
         style="fill:none;stroke:#333333;stroke-width:1.07000005;stroke-linecap:butt;stroke-linejoin:round;stroke-miterlimit:10;stroke-dasharray:none;stroke-opacity:1"
         d="m 438.46,29.82 0,2.74" /><path
         id="path304"
         style="fill:none;stroke:#333333;stroke-width:1.07000005;stroke-linecap:butt;stroke-linejoin:round;stroke-miterlimit:10;stroke-dasharray:none;stroke-opacity:1"
         d="m 551.89,29.82 0,2.74" /></g><g
       id="g306" /><g
       id="g308"><text
         id="text310"
         style="font-variant:normal;font-weight:normal;font-size:9px;font-family:Helvetica;-inkscape-font-specification:Helvetica;writing-mode:lr-tb;fill:#4d4d4d;fill-opacity:1;fill-rule:nonzero;stroke:none"
         transform="matrix(1,0,0,-1,319.9,21.17)"><tspan
           id="tspan312"
           y="0"
           x="0 5.256">−1</tspan></text>
<text
         id="text314"
         style="font-variant:normal;font-weight:normal;font-size:9px;font-family:Helvetica;-inkscape-font-specification:Helvetica;writing-mode:lr-tb;fill:#4d4d4d;fill-opacity:1;fill-rule:nonzero;stroke:none"
         transform="matrix(1,0,0,-1,435.96,21.17)"><tspan
           id="tspan316"
           y="0"
           x="0">0</tspan></text>
<text
         id="text318"
         style="font-variant:normal;font-weight:normal;font-size:9px;font-family:Helvetica;-inkscape-font-specification:Helvetica;writing-mode:lr-tb;fill:#4d4d4d;fill-opacity:1;fill-rule:nonzero;stroke:none"
         transform="matrix(1,0,0,-1,549.39,21.17)"><tspan
           id="tspan320"
           y="0"
           x="0">1</tspan></text>
</g><g
       id="g322" /><g
       id="g324" /><g
       id="g326" /><g
       id="g328" /><g
       id="g330" /><g
       id="g332"><text
         id="text334"
         style="font-variant:normal;font-weight:normal;font-size:11px;font-family:Helvetica;-inkscape-font-specification:Helvetica;writing-mode:lr-tb;fill:#000000;fill-opacity:1;fill-rule:nonzero;stroke:none"
         transform="matrix(1,0,0,-1,335.41,8)"><tspan
           id="tspan336"
           y="0"
           x="0 5.5 8.5579996 14.674 20.790001 26.906 33.021999 36.685001 42.800999 45.243 50.577999 56.694 62.810001 65.867996 73.205002 81.147003 87.263 90.320999 93.984001 100.1 106.216 109.274 115.39 125.169 128.22701 134.013 139.513 145.629 148.071 154.187 156.629 162.745 168.86099 174.97701 178.035 183.25999 189.37601 192.489 195.547">standardized PC1 (62.8% explained var.)</tspan></text>
</g><g
       id="g338" /><g
       id="g340"><text
         id="text342"
         style="font-variant:normal;font-weight:normal;font-size:11px;font-family:Helvetica;-inkscape-font-specification:Helvetica;writing-mode:lr-tb;fill:#000000;fill-opacity:1;fill-rule:nonzero;stroke:none"
         transform="matrix(0,1,1,0,216.11,211.66)"><tspan
           id="tspan344"
           y="0"
           x="0 5.5 8.5579996 14.674 20.790001 26.906 33.021999 36.685001 42.800999 45.243 50.577999 56.694 62.810001 65.867996 73.205002 81.147003 87.263 90.320999 93.984001 100.1 106.216 109.274 115.39 125.169 128.22701 134.013 139.513 145.629 148.071 154.187 156.629 162.745 168.86099 174.97701 178.035 183.25999 189.37601 192.489 195.547">standardized PC2 (23.1% explained var.)</tspan></text>
</g><g
       id="g346" /><g
       id="g348" /><g
       id="g350" /><g
       id="g352" /><g
       id="g354" /><g
       id="g356" /><g
       id="g358" /><g
       id="g360" /><g
       id="g362" /><g
       id="g364" /><g
       id="g366" /><g
       id="g368" /></g></svg>