<?xml version="1.0" encoding="UTF-8" standalone="no"?>
<svg
   xmlns:dc="http://purl.org/dc/elements/1.1/"
   xmlns:cc="http://creativecommons.org/ns#"
   xmlns:rdf="http://www.w3.org/1999/02/22-rdf-syntax-ns#"
   xmlns:svg="http://www.w3.org/2000/svg"
   xmlns="http://www.w3.org/2000/svg"
   viewBox="0 0 576 432"
   height="432"
   width="576"
   xml:space="preserve"
   version="1.1"
   id="svg2"><metadata
     id="metadata8"><rdf:RDF><cc:Work
         rdf:about=""><dc:format>image/svg+xml</dc:format><dc:type
           rdf:resource="http://purl.org/dc/dcmitype/StillImage" /></cc:Work></rdf:RDF></metadata><defs
     id="defs6"><clipPath
       id="clipPath88"
       clipPathUnits="userSpaceOnUse"><path
         id="path90"
         d="m 45.93774,223.05638 171.47052,0 0,104.41838 -171.47052,0 0,-104.41838 z" /></clipPath><clipPath
       id="clipPath182"
       clipPathUnits="userSpaceOnUse"><path
         id="path184"
         d="m 282.82924,223.05638 171.47052,0 0,104.41838 -171.47052,0 0,-104.41838 z" /></clipPath><clipPath
       id="clipPath270"
       clipPathUnits="userSpaceOnUse"><path
         id="path272"
         d="m 45.93774,40.919002 171.47052,0 0,104.418378 -171.47052,0 0,-104.418378 z" /></clipPath><clipPath
       id="clipPath340"
       clipPathUnits="userSpaceOnUse"><path
         id="path342"
         d="m -1021,-463 2815,0 0,1696 -2815,0 0,-1696 z" /></clipPath><clipPath
       id="clipPath360"
       clipPathUnits="userSpaceOnUse"><path
         id="path362"
         d="m -1021,-463 2815,0 0,1696 -2815,0 0,-1696 z" /></clipPath><clipPath
       id="clipPath380"
       clipPathUnits="userSpaceOnUse"><path
         id="path382"
         d="m -1021,-463 2815,0 0,1696 -2815,0 0,-1696 z" /></clipPath><clipPath
       id="clipPath400"
       clipPathUnits="userSpaceOnUse"><path
         id="path402"
         d="m -1021,-463 2815,0 0,1696 -2815,0 0,-1696 z" /></clipPath><clipPath
       id="clipPath420"
       clipPathUnits="userSpaceOnUse"><path
         id="path422"
         d="m 282.82924,40.919002 171.47052,0 0,104.418378 -171.47052,0 0,-104.418378 z" /></clipPath></defs><g
     transform="matrix(1.25,0,0,-1.25,0,432)"
     id="g10"><path
       id="path12"
       style="fill:#ffffff;fill-opacity:1;fill-rule:nonzero;stroke:none"
       d="m 0,0 460.8,0 0,345.6 L 0,345.6 0,0 Z" /><path
       id="path14"
       style="fill:#ffffff;fill-opacity:1;fill-rule:nonzero;stroke:none"
       d="m 45.93774,223.05638 171.47052,0 0,104.41838 -171.47052,0 0,-104.41838 z" /><path
       id="path16"
       style="fill:#000000;fill-opacity:1;fill-rule:nonzero;stroke:#000000;stroke-width:0.80000001;stroke-linecap:butt;stroke-linejoin:round;stroke-miterlimit:10;stroke-dasharray:none;stroke-opacity:1"
       d="m 53.731855,223.05638 0,-3.5" /><text
       id="text18"
       style="font-variant:normal;font-weight:normal;font-size:10px;font-family:'DejaVu Sans';-inkscape-font-specification:DejaVuSans;writing-mode:lr-tb;fill:#000000;fill-opacity:1;fill-rule:nonzero;stroke:none"
       transform="matrix(1,0,0,-1,42.599042,208.46263)"><tspan
         id="tspan20"
         y="0"
         x="0 6.3600001 9.54 15.9">0.00</tspan></text>
<path
       id="path22"
       style="fill:#000000;fill-opacity:1;fill-rule:nonzero;stroke:#000000;stroke-width:0.80000001;stroke-linecap:butt;stroke-linejoin:round;stroke-miterlimit:10;stroke-dasharray:none;stroke-opacity:1"
       d="m 92.706325,223.05638 0,-3.5" /><text
       id="text24"
       style="font-variant:normal;font-weight:normal;font-size:10px;font-family:'DejaVu Sans';-inkscape-font-specification:DejaVuSans;writing-mode:lr-tb;fill:#000000;fill-opacity:1;fill-rule:nonzero;stroke:none"
       transform="matrix(1,0,0,-1,81.573512,208.46263)"><tspan
         id="tspan26"
         y="0"
         x="0 6.3600001 9.54 15.9">0.25</tspan></text>
<path
       id="path28"
       style="fill:#000000;fill-opacity:1;fill-rule:nonzero;stroke:#000000;stroke-width:0.80000001;stroke-linecap:butt;stroke-linejoin:round;stroke-miterlimit:10;stroke-dasharray:none;stroke-opacity:1"
       d="m 131.68079,223.05638 0,-3.5" /><text
       id="text30"
       style="font-variant:normal;font-weight:normal;font-size:10px;font-family:'DejaVu Sans';-inkscape-font-specification:DejaVuSans;writing-mode:lr-tb;fill:#000000;fill-opacity:1;fill-rule:nonzero;stroke:none"
       transform="matrix(1,0,0,-1,120.54798,208.46263)"><tspan
         id="tspan32"
         y="0"
         x="0 6.3600001 9.54 15.9">0.50</tspan></text>
<path
       id="path34"
       style="fill:#000000;fill-opacity:1;fill-rule:nonzero;stroke:#000000;stroke-width:0.80000001;stroke-linecap:butt;stroke-linejoin:round;stroke-miterlimit:10;stroke-dasharray:none;stroke-opacity:1"
       d="m 170.65526,223.05638 0,-3.5" /><text
       id="text36"
       style="font-variant:normal;font-weight:normal;font-size:10px;font-family:'DejaVu Sans';-inkscape-font-specification:DejaVuSans;writing-mode:lr-tb;fill:#000000;fill-opacity:1;fill-rule:nonzero;stroke:none"
       transform="matrix(1,0,0,-1,159.52245,208.46263)"><tspan
         id="tspan38"
         y="0"
         x="0 6.3600001 9.54 15.9">0.75</tspan></text>
<path
       id="path40"
       style="fill:#000000;fill-opacity:1;fill-rule:nonzero;stroke:#000000;stroke-width:0.80000001;stroke-linecap:butt;stroke-linejoin:round;stroke-miterlimit:10;stroke-dasharray:none;stroke-opacity:1"
       d="m 209.62973,223.05638 0,-3.5" /><text
       id="text42"
       style="font-variant:normal;font-weight:normal;font-size:10px;font-family:'DejaVu Sans';-inkscape-font-specification:DejaVuSans;writing-mode:lr-tb;fill:#000000;fill-opacity:1;fill-rule:nonzero;stroke:none"
       transform="matrix(1,0,0,-1,198.49692,208.46263)"><tspan
         id="tspan44"
         y="0"
         x="0 6.3600001 9.54 15.9">1.00</tspan></text>
<text
       id="text46"
       style="font-variant:normal;font-weight:normal;font-size:10px;font-family:'DejaVu Sans';-inkscape-font-specification:DejaVuSans;writing-mode:lr-tb;fill:#000000;fill-opacity:1;fill-rule:nonzero;stroke:none"
       transform="matrix(1,0,0,-1,104.01675,194.79075)"><tspan
         id="tspan48"
         y="0"
         x="0 6.0300002 10.14 16.290001 22.639999 25.42 30.92 34.84 37.619999 43.740002 50.080002">Predictions</tspan></text>
<path
       id="path50"
       style="fill:#000000;fill-opacity:1;fill-rule:nonzero;stroke:#000000;stroke-width:0.80000001;stroke-linecap:butt;stroke-linejoin:round;stroke-miterlimit:10;stroke-dasharray:none;stroke-opacity:1"
       d="m 45.93774,227.79317 -3.5,0" /><text
       id="text52"
       style="font-variant:normal;font-weight:normal;font-size:10px;font-family:'DejaVu Sans';-inkscape-font-specification:DejaVuSans;writing-mode:lr-tb;fill:#000000;fill-opacity:1;fill-rule:nonzero;stroke:none"
       transform="matrix(1,0,0,-1,16.672115,223.9963)"><tspan
         id="tspan54"
         y="0"
         x="0 6.3600001 9.54 15.9">0.00</tspan></text>
<path
       id="path56"
       style="fill:#000000;fill-opacity:1;fill-rule:nonzero;stroke:#000000;stroke-width:0.80000001;stroke-linecap:butt;stroke-linejoin:round;stroke-miterlimit:10;stroke-dasharray:none;stroke-opacity:1"
       d="m 45.93774,251.527 -3.5,0" /><text
       id="text58"
       style="font-variant:normal;font-weight:normal;font-size:10px;font-family:'DejaVu Sans';-inkscape-font-specification:DejaVuSans;writing-mode:lr-tb;fill:#000000;fill-opacity:1;fill-rule:nonzero;stroke:none"
       transform="matrix(1,0,0,-1,16.672115,247.73012)"><tspan
         id="tspan60"
         y="0"
         x="0 6.3600001 9.54 15.9">0.25</tspan></text>
<path
       id="path62"
       style="fill:#000000;fill-opacity:1;fill-rule:nonzero;stroke:#000000;stroke-width:0.80000001;stroke-linecap:butt;stroke-linejoin:round;stroke-miterlimit:10;stroke-dasharray:none;stroke-opacity:1"
       d="m 45.93774,275.26082 -3.5,0" /><text
       id="text64"
       style="font-variant:normal;font-weight:normal;font-size:10px;font-family:'DejaVu Sans';-inkscape-font-specification:DejaVuSans;writing-mode:lr-tb;fill:#000000;fill-opacity:1;fill-rule:nonzero;stroke:none"
       transform="matrix(1,0,0,-1,16.672115,271.46395)"><tspan
         id="tspan66"
         y="0"
         x="0 6.3600001 9.54 15.9">0.50</tspan></text>
<path
       id="path68"
       style="fill:#000000;fill-opacity:1;fill-rule:nonzero;stroke:#000000;stroke-width:0.80000001;stroke-linecap:butt;stroke-linejoin:round;stroke-miterlimit:10;stroke-dasharray:none;stroke-opacity:1"
       d="m 45.93774,298.99465 -3.5,0" /><text
       id="text70"
       style="font-variant:normal;font-weight:normal;font-size:10px;font-family:'DejaVu Sans';-inkscape-font-specification:DejaVuSans;writing-mode:lr-tb;fill:#000000;fill-opacity:1;fill-rule:nonzero;stroke:none"
       transform="matrix(1,0,0,-1,16.672115,295.19777)"><tspan
         id="tspan72"
         y="0"
         x="0 6.3600001 9.54 15.9">0.75</tspan></text>
<path
       id="path74"
       style="fill:#000000;fill-opacity:1;fill-rule:nonzero;stroke:#000000;stroke-width:0.80000001;stroke-linecap:butt;stroke-linejoin:round;stroke-miterlimit:10;stroke-dasharray:none;stroke-opacity:1"
       d="m 45.93774,322.72847 -3.5,0" /><text
       id="text76"
       style="font-variant:normal;font-weight:normal;font-size:10px;font-family:'DejaVu Sans';-inkscape-font-specification:DejaVuSans;writing-mode:lr-tb;fill:#000000;fill-opacity:1;fill-rule:nonzero;stroke:none"
       transform="matrix(1,0,0,-1,16.672115,318.93159)"><tspan
         id="tspan78"
         y="0"
         x="0 6.3600001 9.54 15.9">1.00</tspan></text>
<text
       id="text80"
       style="font-variant:normal;font-weight:normal;font-size:10px;font-family:'DejaVu Sans';-inkscape-font-specification:DejaVuSans;writing-mode:lr-tb;fill:#000000;fill-opacity:1;fill-rule:nonzero;stroke:none"
       transform="matrix(0,1,1,0,10.59399,248.03119)"><tspan
         id="tspan82"
         y="0"
         x="0 7.52 10.3 16.639999 22.99 29.139999 32.32 37.889999 44.009998 49.220001">Hinge Loss</tspan></text>
<g
       id="g84"><g
         clip-path="url(#clipPath88)"
         id="g86"><path
           id="path92"
           style="fill:none;stroke:#1f77b4;stroke-width:1.5;stroke-linecap:square;stroke-linejoin:round;stroke-miterlimit:10;stroke-dasharray:none;stroke-opacity:1"
           d="m 53.731855,322.72847 155.882285,-94.9258 0,0" /></g></g><g
       id="g94"><path
         id="path96"
         style="fill:none;stroke:#000000;stroke-width:0.80000001;stroke-linecap:square;stroke-linejoin:miter;stroke-miterlimit:10;stroke-dasharray:none;stroke-opacity:1"
         d="m 45.93774,223.05638 0,104.41838" /><path
         id="path98"
         style="fill:none;stroke:#000000;stroke-width:0.80000001;stroke-linecap:square;stroke-linejoin:miter;stroke-miterlimit:10;stroke-dasharray:none;stroke-opacity:1"
         d="m 217.40826,223.05638 0,104.41838" /><path
         id="path100"
         style="fill:none;stroke:#000000;stroke-width:0.80000001;stroke-linecap:square;stroke-linejoin:miter;stroke-miterlimit:10;stroke-dasharray:none;stroke-opacity:1"
         d="m 45.93774,223.05638 171.47052,0" /><path
         id="path102"
         style="fill:none;stroke:#000000;stroke-width:0.80000001;stroke-linecap:square;stroke-linejoin:miter;stroke-miterlimit:10;stroke-dasharray:none;stroke-opacity:1"
         d="m 45.93774,327.47476 171.47052,0" /><text
         id="text104"
         style="font-variant:normal;font-weight:normal;font-size:12px;font-family:'DejaVu Sans';-inkscape-font-specification:DejaVuSans;writing-mode:lr-tb;fill:#000000;fill-opacity:1;fill-rule:nonzero;stroke:none"
         transform="matrix(1,0,0,-1,52.024563,333.47476)"><tspan
           id="tspan106"
           y="0"
           x="0 6.684 14.028 20.280001 26.532 30.348 40.164001 43.5 48.203999 55.812 59.627998 66.863998 71.795998 79.176003 86.795998 90.132004 96.732002 101.436 108.816 116.436 120.252 127.356 134.71201 138.048 145.65601 153.036">Loss with Predicted values</tspan></text>
<path
         id="path108"
         style="fill:#ffffff;fill-opacity:1;fill-rule:nonzero;stroke:none"
         d="m 282.82924,223.05638 171.47052,0 0,104.41838 -171.47052,0 0,-104.41838 z" /><path
         id="path110"
         style="fill:#000000;fill-opacity:1;fill-rule:nonzero;stroke:#000000;stroke-width:0.80000001;stroke-linecap:butt;stroke-linejoin:round;stroke-miterlimit:10;stroke-dasharray:none;stroke-opacity:1"
         d="m 290.62335,223.05638 0,-3.5" /><text
         id="text112"
         style="font-variant:normal;font-weight:normal;font-size:10px;font-family:'DejaVu Sans';-inkscape-font-specification:DejaVuSans;writing-mode:lr-tb;fill:#000000;fill-opacity:1;fill-rule:nonzero;stroke:none"
         transform="matrix(1,0,0,-1,279.49054,208.46263)"><tspan
           id="tspan114"
           y="0"
           x="0 6.3600001 9.54 15.9">0.00</tspan></text>
<path
         id="path116"
         style="fill:#000000;fill-opacity:1;fill-rule:nonzero;stroke:#000000;stroke-width:0.80000001;stroke-linecap:butt;stroke-linejoin:round;stroke-miterlimit:10;stroke-dasharray:none;stroke-opacity:1"
         d="m 329.59782,223.05638 0,-3.5" /><text
         id="text118"
         style="font-variant:normal;font-weight:normal;font-size:10px;font-family:'DejaVu Sans';-inkscape-font-specification:DejaVuSans;writing-mode:lr-tb;fill:#000000;fill-opacity:1;fill-rule:nonzero;stroke:none"
         transform="matrix(1,0,0,-1,318.46501,208.46263)"><tspan
           id="tspan120"
           y="0"
           x="0 6.3600001 9.54 15.9">0.25</tspan></text>
<path
         id="path122"
         style="fill:#000000;fill-opacity:1;fill-rule:nonzero;stroke:#000000;stroke-width:0.80000001;stroke-linecap:butt;stroke-linejoin:round;stroke-miterlimit:10;stroke-dasharray:none;stroke-opacity:1"
         d="m 368.57229,223.05638 0,-3.5" /><text
         id="text124"
         style="font-variant:normal;font-weight:normal;font-size:10px;font-family:'DejaVu Sans';-inkscape-font-specification:DejaVuSans;writing-mode:lr-tb;fill:#000000;fill-opacity:1;fill-rule:nonzero;stroke:none"
         transform="matrix(1,0,0,-1,357.43948,208.46263)"><tspan
           id="tspan126"
           y="0"
           x="0 6.3600001 9.54 15.9">0.50</tspan></text>
<path
         id="path128"
         style="fill:#000000;fill-opacity:1;fill-rule:nonzero;stroke:#000000;stroke-width:0.80000001;stroke-linecap:butt;stroke-linejoin:round;stroke-miterlimit:10;stroke-dasharray:none;stroke-opacity:1"
         d="m 407.54676,223.05638 0,-3.5" /><text
         id="text130"
         style="font-variant:normal;font-weight:normal;font-size:10px;font-family:'DejaVu Sans';-inkscape-font-specification:DejaVuSans;writing-mode:lr-tb;fill:#000000;fill-opacity:1;fill-rule:nonzero;stroke:none"
         transform="matrix(1,0,0,-1,396.41395,208.46263)"><tspan
           id="tspan132"
           y="0"
           x="0 6.3600001 9.54 15.9">0.75</tspan></text>
<path
         id="path134"
         style="fill:#000000;fill-opacity:1;fill-rule:nonzero;stroke:#000000;stroke-width:0.80000001;stroke-linecap:butt;stroke-linejoin:round;stroke-miterlimit:10;stroke-dasharray:none;stroke-opacity:1"
         d="m 446.52123,223.05638 0,-3.5" /><text
         id="text136"
         style="font-variant:normal;font-weight:normal;font-size:10px;font-family:'DejaVu Sans';-inkscape-font-specification:DejaVuSans;writing-mode:lr-tb;fill:#000000;fill-opacity:1;fill-rule:nonzero;stroke:none"
         transform="matrix(1,0,0,-1,435.38842,208.46263)"><tspan
           id="tspan138"
           y="0"
           x="0 6.3600001 9.54 15.9">1.00</tspan></text>
<text
         id="text140"
         style="font-variant:normal;font-weight:normal;font-size:10px;font-family:'DejaVu Sans';-inkscape-font-specification:DejaVuSans;writing-mode:lr-tb;fill:#000000;fill-opacity:1;fill-rule:nonzero;stroke:none"
         transform="matrix(1,0,0,-1,340.90825,194.79075)"><tspan
           id="tspan142"
           y="0"
           x="0 6.0300002 10.14 16.290001 22.639999 25.42 30.92 34.84 37.619999 43.740002 50.080002">Predictions</tspan></text>
<path
         id="path144"
         style="fill:#000000;fill-opacity:1;fill-rule:nonzero;stroke:#000000;stroke-width:0.80000001;stroke-linecap:butt;stroke-linejoin:round;stroke-miterlimit:10;stroke-dasharray:none;stroke-opacity:1"
         d="m 282.82924,227.80267 -3.5,0" /><text
         id="text146"
         style="font-variant:normal;font-weight:normal;font-size:10px;font-family:'DejaVu Sans';-inkscape-font-specification:DejaVuSans;writing-mode:lr-tb;fill:#000000;fill-opacity:1;fill-rule:nonzero;stroke:none"
         transform="matrix(1,0,0,-1,253.56361,224.00579)"><tspan
           id="tspan148"
           y="0"
           x="0 6.3600001 9.54 15.9">0.00</tspan></text>
<path
         id="path150"
         style="fill:#000000;fill-opacity:1;fill-rule:nonzero;stroke:#000000;stroke-width:0.80000001;stroke-linecap:butt;stroke-linejoin:round;stroke-miterlimit:10;stroke-dasharray:none;stroke-opacity:1"
         d="m 282.82924,251.53412 -3.5,0" /><text
         id="text152"
         style="font-variant:normal;font-weight:normal;font-size:10px;font-family:'DejaVu Sans';-inkscape-font-specification:DejaVuSans;writing-mode:lr-tb;fill:#000000;fill-opacity:1;fill-rule:nonzero;stroke:none"
         transform="matrix(1,0,0,-1,253.56361,247.73724)"><tspan
           id="tspan154"
           y="0"
           x="0 6.3600001 9.54 15.9">0.25</tspan></text>
<path
         id="path156"
         style="fill:#000000;fill-opacity:1;fill-rule:nonzero;stroke:#000000;stroke-width:0.80000001;stroke-linecap:butt;stroke-linejoin:round;stroke-miterlimit:10;stroke-dasharray:none;stroke-opacity:1"
         d="m 282.82924,275.26557 -3.5,0" /><text
         id="text158"
         style="font-variant:normal;font-weight:normal;font-size:10px;font-family:'DejaVu Sans';-inkscape-font-specification:DejaVuSans;writing-mode:lr-tb;fill:#000000;fill-opacity:1;fill-rule:nonzero;stroke:none"
         transform="matrix(1,0,0,-1,253.56361,271.46869)"><tspan
           id="tspan160"
           y="0"
           x="0 6.3600001 9.54 15.9">0.50</tspan></text>
<path
         id="path162"
         style="fill:#000000;fill-opacity:1;fill-rule:nonzero;stroke:#000000;stroke-width:0.80000001;stroke-linecap:butt;stroke-linejoin:round;stroke-miterlimit:10;stroke-dasharray:none;stroke-opacity:1"
         d="m 282.82924,298.99702 -3.5,0" /><text
         id="text164"
         style="font-variant:normal;font-weight:normal;font-size:10px;font-family:'DejaVu Sans';-inkscape-font-specification:DejaVuSans;writing-mode:lr-tb;fill:#000000;fill-opacity:1;fill-rule:nonzero;stroke:none"
         transform="matrix(1,0,0,-1,253.56361,295.20014)"><tspan
           id="tspan166"
           y="0"
           x="0 6.3600001 9.54 15.9">0.75</tspan></text>
<path
         id="path168"
         style="fill:#000000;fill-opacity:1;fill-rule:nonzero;stroke:#000000;stroke-width:0.80000001;stroke-linecap:butt;stroke-linejoin:round;stroke-miterlimit:10;stroke-dasharray:none;stroke-opacity:1"
         d="m 282.82924,322.72847 -3.5,0" /><text
         id="text170"
         style="font-variant:normal;font-weight:normal;font-size:10px;font-family:'DejaVu Sans';-inkscape-font-specification:DejaVuSans;writing-mode:lr-tb;fill:#000000;fill-opacity:1;fill-rule:nonzero;stroke:none"
         transform="matrix(1,0,0,-1,253.56361,318.93159)"><tspan
           id="tspan172"
           y="0"
           x="0 6.3600001 9.54 15.9">1.00</tspan></text>
<text
         id="text174"
         style="font-variant:normal;font-weight:normal;font-size:10px;font-family:'DejaVu Sans';-inkscape-font-specification:DejaVuSans;writing-mode:lr-tb;fill:#000000;fill-opacity:1;fill-rule:nonzero;stroke:none"
         transform="matrix(0,1,1,0,247.48549,233.02338)"><tspan
           id="tspan176"
           y="0"
           x="0 6.3200002 12.24 18.59 24.709999 31.049999 37.200001 43.540001 47.459999 50.240002 56.369999 59.150002 62.330002 67.900002 74.019997 79.230003">Exponential Loss</tspan></text>
</g><g
       id="g178"><g
         clip-path="url(#clipPath182)"
         id="g180"><path
           id="path186"
           style="fill:none;stroke:#1f77b4;stroke-width:1.5;stroke-linecap:square;stroke-linejoin:round;stroke-miterlimit:10;stroke-dasharray:none;stroke-opacity:1"
           d="m 290.62335,322.72847 0.6236,-31.29513 0.62359,-20.97776 0.62359,-14.06181 0.62359,-9.42591 0.62359,-6.31838 0.62359,-4.23534 0.63919,-2.89647 0.63918,-1.92224 0.65477,-1.30074 0.68595,-0.88707 0.74831,-0.61183 0.87303,-0.42584 1.13805,-0.29391 1.66811,-0.1796 3.22708,-0.0819 16.27574,-0.0118 125.59134,0 0,0" /></g></g><g
       id="g188"><path
         id="path190"
         style="fill:none;stroke:#000000;stroke-width:0.80000001;stroke-linecap:square;stroke-linejoin:miter;stroke-miterlimit:10;stroke-dasharray:none;stroke-opacity:1"
         d="m 282.82924,223.05638 0,104.41838" /><path
         id="path192"
         style="fill:none;stroke:#000000;stroke-width:0.80000001;stroke-linecap:square;stroke-linejoin:miter;stroke-miterlimit:10;stroke-dasharray:none;stroke-opacity:1"
         d="m 454.29976,223.05638 0,104.41838" /><path
         id="path194"
         style="fill:none;stroke:#000000;stroke-width:0.80000001;stroke-linecap:square;stroke-linejoin:miter;stroke-miterlimit:10;stroke-dasharray:none;stroke-opacity:1"
         d="m 282.82924,223.05638 171.47052,0" /><path
         id="path196"
         style="fill:none;stroke:#000000;stroke-width:0.80000001;stroke-linecap:square;stroke-linejoin:miter;stroke-miterlimit:10;stroke-dasharray:none;stroke-opacity:1"
         d="m 282.82924,327.47476 171.47052,0" /><text
         id="text198"
         style="font-variant:normal;font-weight:normal;font-size:12px;font-family:'DejaVu Sans';-inkscape-font-specification:DejaVuSans;writing-mode:lr-tb;fill:#000000;fill-opacity:1;fill-rule:nonzero;stroke:none"
         transform="matrix(1,0,0,-1,288.91606,333.47476)"><tspan
           id="tspan200"
           y="0"
           x="0 6.684 14.028 20.280001 26.532 30.348 40.164001 43.5 48.203999 55.812 59.627998 66.863998 71.795998 79.176003 86.795998 90.132004 96.732002 101.436 108.816 116.436 120.252 127.356 134.71201 138.048 145.65601 153.036">Loss with Predicted values</tspan></text>
<path
         id="path202"
         style="fill:#ffffff;fill-opacity:1;fill-rule:nonzero;stroke:none"
         d="m 45.93774,40.919002 171.47052,0 0,104.418378 -171.47052,0 0,-104.418378 z" /><path
         id="path204"
         style="fill:#000000;fill-opacity:1;fill-rule:nonzero;stroke:#000000;stroke-width:0.80000001;stroke-linecap:butt;stroke-linejoin:round;stroke-miterlimit:10;stroke-dasharray:none;stroke-opacity:1"
         d="m 53.716263,40.919002 0,-3.5" /><text
         id="text206"
         style="font-variant:normal;font-weight:normal;font-size:10px;font-family:'DejaVu Sans';-inkscape-font-specification:DejaVuSans;writing-mode:lr-tb;fill:#000000;fill-opacity:1;fill-rule:nonzero;stroke:none"
         transform="matrix(1,0,0,-1,42.583451,26.325252)"><tspan
           id="tspan208"
           y="0"
           x="0 6.3600001 9.54 15.9">0.00</tspan></text>
<path
         id="path210"
         style="fill:#000000;fill-opacity:1;fill-rule:nonzero;stroke:#000000;stroke-width:0.80000001;stroke-linecap:butt;stroke-linejoin:round;stroke-miterlimit:10;stroke-dasharray:none;stroke-opacity:1"
         d="m 92.694632,40.919002 0,-3.5" /><text
         id="text212"
         style="font-variant:normal;font-weight:normal;font-size:10px;font-family:'DejaVu Sans';-inkscape-font-specification:DejaVuSans;writing-mode:lr-tb;fill:#000000;fill-opacity:1;fill-rule:nonzero;stroke:none"
         transform="matrix(1,0,0,-1,81.561819,26.325252)"><tspan
           id="tspan214"
           y="0"
           x="0 6.3600001 9.54 15.9">0.25</tspan></text>
<path
         id="path216"
         style="fill:#000000;fill-opacity:1;fill-rule:nonzero;stroke:#000000;stroke-width:0.80000001;stroke-linecap:butt;stroke-linejoin:round;stroke-miterlimit:10;stroke-dasharray:none;stroke-opacity:1"
         d="m 131.673,40.919002 0,-3.5" /><text
         id="text218"
         style="font-variant:normal;font-weight:normal;font-size:10px;font-family:'DejaVu Sans';-inkscape-font-specification:DejaVuSans;writing-mode:lr-tb;fill:#000000;fill-opacity:1;fill-rule:nonzero;stroke:none"
         transform="matrix(1,0,0,-1,120.54019,26.325252)"><tspan
           id="tspan220"
           y="0"
           x="0 6.3600001 9.54 15.9">0.50</tspan></text>
<path
         id="path222"
         style="fill:#000000;fill-opacity:1;fill-rule:nonzero;stroke:#000000;stroke-width:0.80000001;stroke-linecap:butt;stroke-linejoin:round;stroke-miterlimit:10;stroke-dasharray:none;stroke-opacity:1"
         d="m 170.65137,40.919002 0,-3.5" /><text
         id="text224"
         style="font-variant:normal;font-weight:normal;font-size:10px;font-family:'DejaVu Sans';-inkscape-font-specification:DejaVuSans;writing-mode:lr-tb;fill:#000000;fill-opacity:1;fill-rule:nonzero;stroke:none"
         transform="matrix(1,0,0,-1,159.51856,26.325252)"><tspan
           id="tspan226"
           y="0"
           x="0 6.3600001 9.54 15.9">0.75</tspan></text>
<path
         id="path228"
         style="fill:#000000;fill-opacity:1;fill-rule:nonzero;stroke:#000000;stroke-width:0.80000001;stroke-linecap:butt;stroke-linejoin:round;stroke-miterlimit:10;stroke-dasharray:none;stroke-opacity:1"
         d="m 209.62974,40.919002 0,-3.5" /><text
         id="text230"
         style="font-variant:normal;font-weight:normal;font-size:10px;font-family:'DejaVu Sans';-inkscape-font-specification:DejaVuSans;writing-mode:lr-tb;fill:#000000;fill-opacity:1;fill-rule:nonzero;stroke:none"
         transform="matrix(1,0,0,-1,198.49692,26.325252)"><tspan
           id="tspan232"
           y="0"
           x="0 6.3600001 9.54 15.9">1.00</tspan></text>
<text
         id="text234"
         style="font-variant:normal;font-weight:normal;font-size:10px;font-family:'DejaVu Sans';-inkscape-font-specification:DejaVuSans;writing-mode:lr-tb;fill:#000000;fill-opacity:1;fill-rule:nonzero;stroke:none"
         transform="matrix(1,0,0,-1,104.01675,12.653377)"><tspan
           id="tspan236"
           y="0"
           x="0 6.0300002 10.14 16.290001 22.639999 25.42 30.92 34.84 37.619999 43.740002 50.080002">Predictions</tspan></text>
<path
         id="path238"
         style="fill:#000000;fill-opacity:1;fill-rule:nonzero;stroke:#000000;stroke-width:0.80000001;stroke-linecap:butt;stroke-linejoin:round;stroke-miterlimit:10;stroke-dasharray:none;stroke-opacity:1"
         d="m 45.93774,45.664261 -3.5,0" /><text
         id="text240"
         style="font-variant:normal;font-weight:normal;font-size:10px;font-family:'DejaVu Sans';-inkscape-font-specification:DejaVuSans;writing-mode:lr-tb;fill:#000000;fill-opacity:1;fill-rule:nonzero;stroke:none"
         transform="matrix(1,0,0,-1,23.03149,41.867386)"><tspan
           id="tspan242"
           y="0"
           x="0 6.3600001 9.54">0.0</tspan></text>
<path
         id="path244"
         style="fill:#000000;fill-opacity:1;fill-rule:nonzero;stroke:#000000;stroke-width:0.80000001;stroke-linecap:butt;stroke-linejoin:round;stroke-miterlimit:10;stroke-dasharray:none;stroke-opacity:1"
         d="m 45.93774,71.430636 -3.5,0" /><text
         id="text246"
         style="font-variant:normal;font-weight:normal;font-size:10px;font-family:'DejaVu Sans';-inkscape-font-specification:DejaVuSans;writing-mode:lr-tb;fill:#000000;fill-opacity:1;fill-rule:nonzero;stroke:none"
         transform="matrix(1,0,0,-1,23.03149,67.633761)"><tspan
           id="tspan248"
           y="0"
           x="0 6.3600001 9.54">2.5</tspan></text>
<path
         id="path250"
         style="fill:#000000;fill-opacity:1;fill-rule:nonzero;stroke:#000000;stroke-width:0.80000001;stroke-linecap:butt;stroke-linejoin:round;stroke-miterlimit:10;stroke-dasharray:none;stroke-opacity:1"
         d="m 45.93774,97.197011 -3.5,0" /><text
         id="text252"
         style="font-variant:normal;font-weight:normal;font-size:10px;font-family:'DejaVu Sans';-inkscape-font-specification:DejaVuSans;writing-mode:lr-tb;fill:#000000;fill-opacity:1;fill-rule:nonzero;stroke:none"
         transform="matrix(1,0,0,-1,23.03149,93.400136)"><tspan
           id="tspan254"
           y="0"
           x="0 6.3600001 9.54">5.0</tspan></text>
<path
         id="path256"
         style="fill:#000000;fill-opacity:1;fill-rule:nonzero;stroke:#000000;stroke-width:0.80000001;stroke-linecap:butt;stroke-linejoin:round;stroke-miterlimit:10;stroke-dasharray:none;stroke-opacity:1"
         d="m 45.93774,122.96339 -3.5,0" /><text
         id="text258"
         style="font-variant:normal;font-weight:normal;font-size:10px;font-family:'DejaVu Sans';-inkscape-font-specification:DejaVuSans;writing-mode:lr-tb;fill:#000000;fill-opacity:1;fill-rule:nonzero;stroke:none"
         transform="matrix(1,0,0,-1,23.03149,119.16651)"><tspan
           id="tspan260"
           y="0"
           x="0 6.3600001 9.54">7.5</tspan></text>
<text
         id="text262"
         style="font-variant:normal;font-weight:normal;font-size:10px;font-family:'DejaVu Sans';-inkscape-font-specification:DejaVuSans;writing-mode:lr-tb;fill:#000000;fill-opacity:1;fill-rule:nonzero;stroke:none"
         transform="matrix(0,1,1,0,16.953365,2.8703809)"><tspan
           id="tspan264"
           y="0"
           x="0 6.8600001 9.6400003 15.98 22.110001 26.219999 32.139999 35.32 42.299999 46.41 52.529999 57.740002 62.950001 66.129997 72.449997 78.790001 82.709999 86.82 92.940002 99.290001 105.21 108.39 113.96 120.08 125.29 130.5 133.87 137.05 142.62 148.74001 155.09 158.27 163.84 169.96001 175.17">Binary Cross Entropy Loss/ Log Loss</tspan></text>
</g><g
       id="g266"><g
         clip-path="url(#clipPath270)"
         id="g268"><path
           id="path274"
           style="fill:none;stroke:#1f77b4;stroke-width:1.5;stroke-linecap:square;stroke-linejoin:round;stroke-miterlimit:10;stroke-dasharray:none;stroke-opacity:1"
           d="m 53.731855,140.59109 0.155913,-24.71402 0.280644,-9.99118 0.405375,-6.596575 0.514515,-4.844116 0.639245,-3.942004 0.748385,-3.260346 0.873115,-2.833155 1.013438,-2.535978 1.153759,-2.285997 1.309674,-2.098402 1.481178,-1.950433 1.668274,-1.829104 1.902144,-1.753031 2.167197,-1.690194 2.463433,-1.635119 2.822034,-1.601058 3.227409,-1.570018 3.695149,-1.545455 4.240847,-1.528028 4.880092,-1.516907 5.612885,-1.506674 6.47041,-1.50106 7.45266,-1.495052 8.59084,-1.490973 9.9005,-1.48713 11.41287,-1.484176 13.15909,-1.481924 15.18598,-1.481197 17.52467,-1.480541 20.22198,-1.479864 4.70858,-0.316087 0,0" /></g></g><g
       id="g276"><path
         id="path278"
         style="fill:none;stroke:#000000;stroke-width:0.80000001;stroke-linecap:square;stroke-linejoin:miter;stroke-miterlimit:10;stroke-dasharray:none;stroke-opacity:1"
         d="m 45.93774,40.919002 0,104.418378" /><path
         id="path280"
         style="fill:none;stroke:#000000;stroke-width:0.80000001;stroke-linecap:square;stroke-linejoin:miter;stroke-miterlimit:10;stroke-dasharray:none;stroke-opacity:1"
         d="m 217.40826,40.919002 0,104.418378" /><path
         id="path282"
         style="fill:none;stroke:#000000;stroke-width:0.80000001;stroke-linecap:square;stroke-linejoin:miter;stroke-miterlimit:10;stroke-dasharray:none;stroke-opacity:1"
         d="m 45.93774,40.919002 171.47052,0" /><path
         id="path284"
         style="fill:none;stroke:#000000;stroke-width:0.80000001;stroke-linecap:square;stroke-linejoin:miter;stroke-miterlimit:10;stroke-dasharray:none;stroke-opacity:1"
         d="m 45.93774,145.33738 171.47052,0" /><text
         id="text286"
         style="font-variant:normal;font-weight:normal;font-size:12px;font-family:'DejaVu Sans';-inkscape-font-specification:DejaVuSans;writing-mode:lr-tb;fill:#000000;fill-opacity:1;fill-rule:nonzero;stroke:none"
         transform="matrix(1,0,0,-1,52.024563,151.33738)"><tspan
           id="tspan288"
           y="0"
           x="0 6.684 14.028 20.280001 26.532 30.348 40.164001 43.5 48.203999 55.812 59.627998 66.863998 71.795998 79.176003 86.795998 90.132004 96.732002 101.436 108.816 116.436 120.252 127.356 134.71201 138.048 145.65601 153.036">Loss with Predicted values</tspan></text>
<path
         id="path290"
         style="fill:#ffffff;fill-opacity:1;fill-rule:nonzero;stroke:none"
         d="m 282.82924,40.919002 171.47052,0 0,104.418378 -171.47052,0 0,-104.418378 z" /><path
         id="path292"
         style="fill:#000000;fill-opacity:1;fill-rule:nonzero;stroke:#000000;stroke-width:0.80000001;stroke-linecap:butt;stroke-linejoin:round;stroke-miterlimit:10;stroke-dasharray:none;stroke-opacity:1"
         d="m 290.60776,40.919002 0,-3.5" /><text
         id="text294"
         style="font-variant:normal;font-weight:normal;font-size:10px;font-family:'DejaVu Sans';-inkscape-font-specification:DejaVuSans;writing-mode:lr-tb;fill:#000000;fill-opacity:1;fill-rule:nonzero;stroke:none"
         transform="matrix(1,0,0,-1,279.47495,26.325252)"><tspan
           id="tspan296"
           y="0"
           x="0 6.3600001 9.54 15.9">0.00</tspan></text>
<path
         id="path298"
         style="fill:#000000;fill-opacity:1;fill-rule:nonzero;stroke:#000000;stroke-width:0.80000001;stroke-linecap:butt;stroke-linejoin:round;stroke-miterlimit:10;stroke-dasharray:none;stroke-opacity:1"
         d="m 329.58613,40.919002 0,-3.5" /><text
         id="text300"
         style="font-variant:normal;font-weight:normal;font-size:10px;font-family:'DejaVu Sans';-inkscape-font-specification:DejaVuSans;writing-mode:lr-tb;fill:#000000;fill-opacity:1;fill-rule:nonzero;stroke:none"
         transform="matrix(1,0,0,-1,318.45332,26.325252)"><tspan
           id="tspan302"
           y="0"
           x="0 6.3600001 9.54 15.9">0.25</tspan></text>
<path
         id="path304"
         style="fill:#000000;fill-opacity:1;fill-rule:nonzero;stroke:#000000;stroke-width:0.80000001;stroke-linecap:butt;stroke-linejoin:round;stroke-miterlimit:10;stroke-dasharray:none;stroke-opacity:1"
         d="m 368.5645,40.919002 0,-3.5" /><text
         id="text306"
         style="font-variant:normal;font-weight:normal;font-size:10px;font-family:'DejaVu Sans';-inkscape-font-specification:DejaVuSans;writing-mode:lr-tb;fill:#000000;fill-opacity:1;fill-rule:nonzero;stroke:none"
         transform="matrix(1,0,0,-1,357.43169,26.325252)"><tspan
           id="tspan308"
           y="0"
           x="0 6.3600001 9.54 15.9">0.50</tspan></text>
<path
         id="path310"
         style="fill:#000000;fill-opacity:1;fill-rule:nonzero;stroke:#000000;stroke-width:0.80000001;stroke-linecap:butt;stroke-linejoin:round;stroke-miterlimit:10;stroke-dasharray:none;stroke-opacity:1"
         d="m 407.54287,40.919002 0,-3.5" /><text
         id="text312"
         style="font-variant:normal;font-weight:normal;font-size:10px;font-family:'DejaVu Sans';-inkscape-font-specification:DejaVuSans;writing-mode:lr-tb;fill:#000000;fill-opacity:1;fill-rule:nonzero;stroke:none"
         transform="matrix(1,0,0,-1,396.41006,26.325252)"><tspan
           id="tspan314"
           y="0"
           x="0 6.3600001 9.54 15.9">0.75</tspan></text>
<path
         id="path316"
         style="fill:#000000;fill-opacity:1;fill-rule:nonzero;stroke:#000000;stroke-width:0.80000001;stroke-linecap:butt;stroke-linejoin:round;stroke-miterlimit:10;stroke-dasharray:none;stroke-opacity:1"
         d="m 446.52124,40.919002 0,-3.5" /><text
         id="text318"
         style="font-variant:normal;font-weight:normal;font-size:10px;font-family:'DejaVu Sans';-inkscape-font-specification:DejaVuSans;writing-mode:lr-tb;fill:#000000;fill-opacity:1;fill-rule:nonzero;stroke:none"
         transform="matrix(1,0,0,-1,435.38842,26.325252)"><tspan
           id="tspan320"
           y="0"
           x="0 6.3600001 9.54 15.9">1.00</tspan></text>
<text
         id="text322"
         style="font-variant:normal;font-weight:normal;font-size:10px;font-family:'DejaVu Sans';-inkscape-font-specification:DejaVuSans;writing-mode:lr-tb;fill:#000000;fill-opacity:1;fill-rule:nonzero;stroke:none"
         transform="matrix(1,0,0,-1,340.90825,12.653377)"><tspan
           id="tspan324"
           y="0"
           x="0 6.0300002 10.14 16.290001 22.639999 25.42 30.92 34.84 37.619999 43.740002 50.080002">Predictions</tspan></text>
<path
         id="path326"
         style="fill:#000000;fill-opacity:1;fill-rule:nonzero;stroke:#000000;stroke-width:0.80000001;stroke-linecap:butt;stroke-linejoin:round;stroke-miterlimit:10;stroke-dasharray:none;stroke-opacity:1"
         d="m 282.82924,45.665292 -3.5,0" /><g
         transform="translate(245.18861,41.868417)"
         id="g328"><text
           id="text330"
           style="font-variant:normal;font-weight:normal;font-size:10px;font-family:'DejaVu Sans';-inkscape-font-specification:DejaVuSans;writing-mode:lr-tb;fill:#000000;fill-opacity:1;fill-rule:nonzero;stroke:none"
           transform="matrix(1,0,0,-1,8.3789063,0)"><tspan
             id="tspan332"
             y="0"
             x="0 6.3600001 9.54 15.9">1.00</tspan></text>
<g
           transform="scale(0.01,0.01)"
           id="g334"><g
             id="g336"><g
               clip-path="url(#clipPath340)"
               id="g338"><path
                 id="path344"
                 style="fill:#000000;fill-opacity:1;fill-rule:nonzero;stroke:none"
                 d="m 106,355 626,0 0,-83 -626,0 0,83" /></g></g></g></g><path
         id="path346"
         style="fill:#000000;fill-opacity:1;fill-rule:nonzero;stroke:#000000;stroke-width:0.80000001;stroke-linecap:butt;stroke-linejoin:round;stroke-miterlimit:10;stroke-dasharray:none;stroke-opacity:1"
         d="m 282.82924,69.420998 -3.5,0" /><g
         transform="translate(245.18861,65.624123)"
         id="g348"><text
           id="text350"
           style="font-variant:normal;font-weight:normal;font-size:10px;font-family:'DejaVu Sans';-inkscape-font-specification:DejaVuSans;writing-mode:lr-tb;fill:#000000;fill-opacity:1;fill-rule:nonzero;stroke:none"
           transform="matrix(1,0,0,-1,8.3789063,0)"><tspan
             id="tspan352"
             y="0"
             x="0 6.3600001 9.54 15.9">0.75</tspan></text>
<g
           transform="scale(0.01,0.01)"
           id="g354"><g
             id="g356"><g
               clip-path="url(#clipPath360)"
               id="g358"><path
                 id="path364"
                 style="fill:#000000;fill-opacity:1;fill-rule:nonzero;stroke:none"
                 d="m 106,355 626,0 0,-83 -626,0 0,83" /></g></g></g></g><path
         id="path366"
         style="fill:#000000;fill-opacity:1;fill-rule:nonzero;stroke:#000000;stroke-width:0.80000001;stroke-linecap:butt;stroke-linejoin:round;stroke-miterlimit:10;stroke-dasharray:none;stroke-opacity:1"
         d="m 282.82924,93.176704 -3.5,0" /><g
         transform="translate(245.18861,89.379829)"
         id="g368"><text
           id="text370"
           style="font-variant:normal;font-weight:normal;font-size:10px;font-family:'DejaVu Sans';-inkscape-font-specification:DejaVuSans;writing-mode:lr-tb;fill:#000000;fill-opacity:1;fill-rule:nonzero;stroke:none"
           transform="matrix(1,0,0,-1,8.3789063,0)"><tspan
             id="tspan372"
             y="0"
             x="0 6.3600001 9.54 15.9">0.50</tspan></text>
<g
           transform="scale(0.01,0.01)"
           id="g374"><g
             id="g376"><g
               clip-path="url(#clipPath380)"
               id="g378"><path
                 id="path384"
                 style="fill:#000000;fill-opacity:1;fill-rule:nonzero;stroke:none"
                 d="m 106,355 626,0 0,-83 -626,0 0,83" /></g></g></g></g><path
         id="path386"
         style="fill:#000000;fill-opacity:1;fill-rule:nonzero;stroke:#000000;stroke-width:0.80000001;stroke-linecap:butt;stroke-linejoin:round;stroke-miterlimit:10;stroke-dasharray:none;stroke-opacity:1"
         d="m 282.82924,116.93241 -3.5,0" /><g
         transform="translate(245.18861,113.13554)"
         id="g388"><text
           id="text390"
           style="font-variant:normal;font-weight:normal;font-size:10px;font-family:'DejaVu Sans';-inkscape-font-specification:DejaVuSans;writing-mode:lr-tb;fill:#000000;fill-opacity:1;fill-rule:nonzero;stroke:none"
           transform="matrix(1,0,0,-1,8.3789063,0)"><tspan
             id="tspan392"
             y="0"
             x="0 6.3600001 9.54 15.9">0.25</tspan></text>
<g
           transform="scale(0.01,0.01)"
           id="g394"><g
             id="g396"><g
               clip-path="url(#clipPath400)"
               id="g398"><path
                 id="path404"
                 style="fill:#000000;fill-opacity:1;fill-rule:nonzero;stroke:none"
                 d="m 106,355 626,0 0,-83 -626,0 0,83" /></g></g></g></g><path
         id="path406"
         style="fill:#000000;fill-opacity:1;fill-rule:nonzero;stroke:#000000;stroke-width:0.80000001;stroke-linecap:butt;stroke-linejoin:round;stroke-miterlimit:10;stroke-dasharray:none;stroke-opacity:1"
         d="m 282.82924,140.68812 -3.5,0" /><text
         id="text408"
         style="font-variant:normal;font-weight:normal;font-size:10px;font-family:'DejaVu Sans';-inkscape-font-specification:DejaVuSans;writing-mode:lr-tb;fill:#000000;fill-opacity:1;fill-rule:nonzero;stroke:none"
         transform="matrix(1,0,0,-1,253.56361,136.89124)"><tspan
           id="tspan410"
           y="0"
           x="0 6.3600001 9.54 15.9">0.00</tspan></text>
<text
         id="text412"
         style="font-variant:normal;font-weight:normal;font-size:10px;font-family:'DejaVu Sans';-inkscape-font-specification:DejaVuSans;writing-mode:lr-tb;fill:#000000;fill-opacity:1;fill-rule:nonzero;stroke:none"
         transform="matrix(0,1,1,0,239.11049,44.214131)"><tspan
           id="tspan414"
           y="0"
           x="0 6.5599999 12.13 15.31 23.01 25.790001 31.709999 37.860001 41.970001 48.32 54.470001 60.810001 66.309998 72.459999 75.639999 81.209999 87.330002 92.540001">KL Divergence Loss</tspan></text>
</g><g
       id="g416"><g
         clip-path="url(#clipPath420)"
         id="g418"><path
           id="path424"
           style="fill:none;stroke:#1f77b4;stroke-width:1.5;stroke-linecap:square;stroke-linejoin:round;stroke-miterlimit:10;stroke-dasharray:none;stroke-opacity:1"
           d="m 290.62335,140.59109 0.45215,-1.84405 0.99785,-3.12081 1.44999,-3.78584 1.82419,-4.13208 2.15161,-4.32016 2.44784,-4.41495 2.7129,-4.43467 2.96235,-4.41637 3.19623,-4.36479 3.39891,-4.26581 3.6016,-4.164204 3.7887,-4.041718 3.97579,-3.916656 4.1473,-3.774041 4.3188,-3.629786 4.49031,-3.482923 4.64622,-3.322081 4.80214,-3.16008 4.95805,-2.996312 5.11396,-2.830327 5.26987,-2.661783 5.4102,-2.483618 5.56611,-2.310606 5.72203,-2.134371 5.87794,-1.954822 6.03385,-1.771892 6.18976,-1.58554 6.34568,-1.395743 6.51718,-1.205103 6.6731,-1.007348 6.8446,-0.80778 7.01611,-0.603345 7.18761,-0.394145 7.35911,-0.180272 2.43226,-0.01177 0,0" /></g></g><g
       id="g426"><path
         id="path428"
         style="fill:none;stroke:#000000;stroke-width:0.80000001;stroke-linecap:square;stroke-linejoin:miter;stroke-miterlimit:10;stroke-dasharray:none;stroke-opacity:1"
         d="m 282.82924,40.919002 0,104.418378" /><path
         id="path430"
         style="fill:none;stroke:#000000;stroke-width:0.80000001;stroke-linecap:square;stroke-linejoin:miter;stroke-miterlimit:10;stroke-dasharray:none;stroke-opacity:1"
         d="m 454.29976,40.919002 0,104.418378" /><path
         id="path432"
         style="fill:none;stroke:#000000;stroke-width:0.80000001;stroke-linecap:square;stroke-linejoin:miter;stroke-miterlimit:10;stroke-dasharray:none;stroke-opacity:1"
         d="m 282.82924,40.919002 171.47052,0" /><path
         id="path434"
         style="fill:none;stroke:#000000;stroke-width:0.80000001;stroke-linecap:square;stroke-linejoin:miter;stroke-miterlimit:10;stroke-dasharray:none;stroke-opacity:1"
         d="m 282.82924,145.33738 171.47052,0" /><text
         id="text436"
         style="font-variant:normal;font-weight:normal;font-size:12px;font-family:'DejaVu Sans';-inkscape-font-specification:DejaVuSans;writing-mode:lr-tb;fill:#000000;fill-opacity:1;fill-rule:nonzero;stroke:none"
         transform="matrix(1,0,0,-1,288.91606,151.33738)"><tspan
           id="tspan438"
           y="0"
           x="0 6.684 14.028 20.280001 26.532 30.348 40.164001 43.5 48.203999 55.812 59.627998 66.863998 71.795998 79.176003 86.795998 90.132004 96.732002 101.436 108.816 116.436 120.252 127.356 134.71201 138.048 145.65601 153.036">Loss with Predicted values</tspan></text>
</g></g></svg>